<?xml version="1.0" encoding="UTF-8" standalone="no"?>
<svg
   xmlns:dc="http://purl.org/dc/elements/1.1/"
   xmlns:cc="http://creativecommons.org/ns#"
   xmlns:rdf="http://www.w3.org/1999/02/22-rdf-syntax-ns#"
   xmlns:svg="http://www.w3.org/2000/svg"
   xmlns="http://www.w3.org/2000/svg"
   xmlns:sodipodi="http://sodipodi.sourceforge.net/DTD/sodipodi-0.dtd"
   xmlns:inkscape="http://www.inkscape.org/namespaces/inkscape"
   version="1.1"
   id="svg1691"
   width="361"
   height="530"
   viewBox="0 0 361 530"
   sodipodi:docname="camping_pin_vector_03.svg"
   inkscape:version="1.0.2-2 (e86c870879, 2021-01-15)">
  <metadata
     id="metadata1697">
    <rdf:RDF>
      <cc:Work
         rdf:about="">
        <dc:format>image/svg+xml</dc:format>
        <dc:type
           rdf:resource="http://purl.org/dc/dcmitype/StillImage" />
        <dc:title></dc:title>
      </cc:Work>
    </rdf:RDF>
  </metadata>
  <defs
     id="defs1695" />
  <sodipodi:namedview
     pagecolor="#ffffff"
     bordercolor="#666666"
     borderopacity="1"
     objecttolerance="10"
     gridtolerance="10"
     guidetolerance="10"
     inkscape:pageopacity="0"
     inkscape:pageshadow="2"
     inkscape:window-width="3440"
     inkscape:window-height="1334"
     id="namedview1693"
     showgrid="false"
     inkscape:zoom="1.4920728"
     inkscape:cx="310.56611"
     inkscape:cy="311.93347"
     inkscape:window-x="-11"
     inkscape:window-y="-11"
     inkscape:window-maximized="1"
     inkscape:current-layer="g1699" />
  <g
     inkscape:groupmode="layer"
     inkscape:label="Image"
     id="g1699"
     style="display:inline">
    <g
       id="g2463"
       transform="translate(-218.48801,-60.988983)">
      <ellipse
         style="fill:#ffffff;fill-opacity:1;stroke-width:4.15109"
         id="path2457"
         cx="395.23001"
         cy="265.0675"
         rx="90.478165"
         ry="81.430351" />
      <path
         style="fill:#95e959;stroke-width:0.322458"
         d="m 397.50914,475.66895 c -17.26224,-20.38158 -51.67785,-70.1026 -72.28135,-104.42653 -14.37704,-23.9511 -22.86054,-40.45697 -30.14215,-58.64593 -5.17628,-12.92998 -8.11106,-23.37803 -9.52213,-33.89956 l -0.5622,-4.19195 -6.4e-4,-9.67375 -6.5e-4,-9.67374 0.57002,-4.03073 c 1.20455,-8.51758 2.58914,-14.25283 5.25465,-21.76592 2.99879,-8.45247 6.48967,-15.37814 11.53998,-22.89453 9.09548,-13.53731 20.01791,-23.99855 34.20136,-32.75754 14.01186,-8.65302 29.4521,-13.95323 46.4325,-15.93902 l 4.51441,-0.52794 6.93285,0.004 6.93285,0.004 3.54704,0.35466 c 15.05585,1.50537 29.39697,5.7891 42.05503,12.56194 10.69131,5.72051 18.81015,11.72919 27.29703,20.20225 l 4.54732,4.53991 3.0777,3.844 c 12.37809,15.46001 19.96031,33.01405 22.68437,52.51796 l 0.49781,3.56426 0.18753,7.6129 0.18752,7.61291 -0.39402,4.80173 c -1.05549,12.86286 -4.2695,25.38346 -11.45518,44.62531 -6.2276,16.67629 -17.36344,40.33775 -29.2895,62.23442 -9.52157,17.48194 -24.41169,42.2514 -35.76444,59.49353 -7.69503,11.68692 -17.55641,25.60943 -24.38155,34.42241 l -2.68455,3.46642 -0.53974,-0.005 -0.53974,-0.005 -2.90213,-3.42657 z m 36.99579,-163.30333 c 3.24013,-1.25697 6.29019,-2.43201 6.7779,-2.61121 0.48772,-0.1792 0.88676,-0.43333 0.88676,-0.56474 0,-0.3013 -9.62785,-3.8971 -10.42357,-3.89299 -0.32373,0.002 -2.08798,0.58928 -3.92056,1.30578 l -3.33196,1.30273 -0.19078,0.49717 c -0.53525,1.39484 0.34536,3.91199 1.91918,5.48581 l 0.76285,0.76285 h 0.81452 0.81451 z m 29.31002,1.67771 0.77254,-0.60768 0.94423,-1.97555 0.94422,-1.97554 -0.30426,-0.86516 -0.30426,-0.86517 -2.57824,-1.01232 c -1.41803,-0.55678 -3.2675,-1.26615 -4.10992,-1.57638 l -1.53167,-0.56406 v -0.40864 -0.40864 l 2.01536,-0.8202 c 1.10845,-0.45111 2.886,-1.14914 3.95011,-1.55119 1.06411,-0.40204 2.18869,-0.94784 2.49905,-1.2129 l 0.5643,-0.48191 v -0.93025 -0.93024 l -0.6813,-1.3576 c -0.37472,-0.74668 -0.98044,-1.68409 -1.34605,-2.08313 l -0.66473,-0.72553 h -0.77493 -0.77493 l -7.92568,3.06335 -7.92568,3.06335 h -0.76573 c -0.42115,0 -4.06238,-1.21559 -8.09162,-2.70131 -4.02924,-1.48572 -8.09279,-2.95014 -9.03011,-3.25425 l -1.70421,-0.55295 -0.79235,0.51916 -0.79233,0.51916 -0.80864,1.59577 -0.80864,1.59577 v 0.98125 0.98125 l 0.61307,0.52493 c 0.33719,0.28871 3.4207,1.57674 6.85224,2.86228 8.08789,3.02992 20.47117,7.70437 26.3928,9.96276 2.5716,0.98076 4.83745,1.78681 5.03522,1.79123 0.19778,0.004 0.70724,-0.26543 1.13214,-0.59966 z m -21.00044,-19.34575 c 0,-0.15592 -0.39904,-1.13539 -0.88676,-2.17659 l -0.88676,-1.89311 v -3.06335 -3.06335 l 0.8996,-1.92114 c 0.49478,-1.05663 1.26604,-2.40158 1.71392,-2.98878 l 0.81433,-1.06764 0.25597,0.15821 c 0.14079,0.087 0.34629,0.92658 0.45667,1.86572 0.11038,0.93913 0.44038,2.43055 0.73334,3.31426 l 0.53266,1.60674 1.25518,1.6123 c 0.69035,0.88676 1.82761,2.33468 2.52725,3.21761 l 1.27208,1.60531 0.19629,0.89374 0.1963,0.89373 h 0.4117 c 0.22643,0 1.05644,-0.4923 1.84446,-1.094 2.52129,-1.92515 4.11534,-4.51029 4.78673,-7.76287 l 0.39715,-1.92402 -0.20683,-2.01878 c -0.34321,-3.34987 -1.86645,-7.5152 -2.74827,-7.5152 -0.14527,0 -0.75374,0.72179 -1.35216,1.60398 -0.59843,0.88219 -1.26054,1.60772 -1.47136,1.61229 l -0.38331,0.008 -0.19929,-1.53168 c -0.1096,-0.84242 -0.50307,-2.5224 -0.87438,-3.73328 l -0.6751,-2.20161 -1.283,-1.99035 c -1.64266,-2.54828 -2.76989,-3.8417 -5.18041,-5.94412 l -1.94519,-1.69657 -0.21061,0.24551 c -0.11583,0.13503 -0.38149,1.04596 -0.59035,2.0243 l -0.37975,1.7788 -1.13055,2.2069 c -0.62179,1.2138 -2.45021,4.02562 -4.06314,6.2485 -3.21245,4.42727 -3.99596,5.92579 -4.48688,8.58135 l -0.32585,1.76272 0.31154,1.93449 0.31154,1.93449 0.8542,1.80562 0.85419,1.80562 1.51378,1.55413 1.51377,1.55414 2.08812,1.01234 c 1.14847,0.55678 2.41461,1.01604 2.81365,1.02057 l 0.72553,0.008 z m -15.07933,-4.31639 0.23744,-0.0758 -0.81111,-2.00683 c -0.44611,-1.10376 -0.96778,-2.84503 -1.15927,-3.8695 l -0.34816,-1.86267 0.19218,-2.10799 0.19218,-2.10798 0.7805,-2.29477 0.7805,-2.29476 1.11099,-1.72395 c 0.61104,-0.94818 1.71871,-2.44949 2.46148,-3.33625 0.74278,-0.88676 1.79821,-2.51604 2.3454,-3.62061 l 0.99489,-2.00833 -5.57837,-9.43894 c -6.92704,-11.72098 -10.30716,-17.418 -20.61874,-34.7519 -12.31915,-20.70866 -13.22853,-22.21412 -13.53169,-22.40148 l -0.28055,-0.17339 -1.20322,2.17799 c -0.66177,1.1979 -6.45331,11.39223 -12.87009,22.65408 -6.41678,11.26185 -13.09271,23.01545 -14.83539,26.11911 -1.74269,3.10366 -4.36052,7.74706 -5.81741,10.31866 -1.45688,2.57161 -4.28258,7.57777 -6.27933,11.12481 -5.75384,10.22118 -7.80781,13.80096 -8.46452,14.75246 l -0.61203,0.88676 h -6.58843 -6.58844 v 3.04292 3.04292 l 1.04799,0.10105 c 1.18823,0.11457 95.07676,-0.0287 95.4432,-0.14565 z m -53.7899,-6.47229 -0.16541,-0.43105 2.30752,-3.45649 c 4.82138,-7.22205 10.54887,-17.97245 16.32576,-30.64317 1.20663,-2.64655 2.35056,-4.86328 2.54207,-4.92606 l 0.34819,-0.11415 1.22796,2.66886 c 7.33013,15.93142 10.96803,22.82738 16.52804,31.33038 l 3.34926,5.12207 -0.16897,0.44033 -0.16897,0.44033 h -20.98002 -20.98002 z"
         id="path2447" />
      <path
         style="fill:#3ac41b;stroke-width:0.322458"
         d="m 398.37426,475.79948 c -16.35721,-19.06892 -51.18151,-69.24279 -71.78687,-103.42845 -9.34735,-15.50789 -14.85435,-25.41467 -20.70322,-37.24392 -4.58149,-9.26602 -6.94202,-14.531 -10.4815,-23.37822 -5.90458,-14.759 -8.72856,-26.10419 -9.71199,-39.01743 l -0.38064,-4.9981 0.19164,-5.96548 0.19165,-5.96548 0.65655,-5.07458 c 1.03682,-8.01365 2.46728,-13.89402 5.37957,-22.1144 l 1.4488,-4.08946 3.0335,-6.16719 3.0335,-6.16719 3.35638,-5.02885 c 1.84601,-2.76586 4.49752,-6.44785 5.89225,-8.18219 3.13538,-3.89883 9.95541,-10.93394 13.82596,-14.26197 14.77589,-12.7048 32.97337,-21.52499 51.91576,-25.16318 1.95087,-0.3747 5.07065,-0.9 6.93285,-1.16733 l 3.38581,-0.48607 7.48913,-0.18621 7.48913,-0.18621 4.57033,0.38961 c 17.12148,1.45957 33.82945,6.83675 48.23296,15.52297 8.19061,4.93945 14.07815,9.50499 21.174,16.41956 l 4.79823,4.67565 3.22412,4.01747 c 6.14333,7.65501 11.61955,16.60596 15.10007,24.6813 0.91729,2.12823 2.51015,6.40886 3.53971,9.51252 l 1.87193,5.64301 0.98635,4.75005 c 0.54249,2.61252 1.23605,6.60294 1.54125,8.8676 l 0.5549,4.11755 0.0118,9.19006 0.0118,9.19006 -0.4153,3.38581 c -2.4419,19.90778 -11.38029,45.51689 -27.29293,78.1961 -5.1113,10.49687 -13.21259,25.87581 -17.92067,34.01933 -1.17913,2.03955 -2.70126,4.72402 -3.3825,5.96548 -1.74487,3.17979 -14.03701,23.62187 -17.66635,29.37952 -6.5514,10.39321 -7.91531,12.5026 -13.2164,20.44026 -9.48419,14.20126 -23.15691,32.89074 -24.06199,32.89074 -0.14351,0 -1.4123,-1.34224 -2.81951,-2.98274 z m 35.67733,-162.6544 c 2.57161,-0.97956 5.66127,-2.15304 6.86591,-2.60774 l 2.19027,-0.82673 -0.0978,-0.51254 -0.0978,-0.51253 -2.57619,-1.0319 c -1.4169,-0.56754 -3.90087,-1.48057 -5.51993,-2.02896 l -2.94373,-0.99706 -3.28258,1.24803 c -3.61933,1.37606 -4.4161,1.90369 -4.72335,3.12789 l -0.20659,0.82312 0.39639,0.95696 c 0.21801,0.52632 0.81457,1.61636 1.32569,2.42232 l 0.92931,1.46536 0.7262,0.29882 0.7262,0.29882 0.80614,-0.17142 c 0.44338,-0.0943 2.91019,-0.97288 5.48179,-1.95244 z m 30.55703,1.10286 c 0.37446,-0.39904 1.12944,-1.68463 1.67772,-2.85687 l 0.99688,-2.13135 -0.33019,-0.86848 -0.3302,-0.86848 -1.69439,-0.74575 c -0.93191,-0.41016 -2.63757,-1.07892 -3.79036,-1.48614 -1.15279,-0.40723 -2.22391,-0.85211 -2.38027,-0.98863 l -0.28428,-0.24823 1.25165,-0.53216 c 0.68841,-0.29269 2.43381,-0.9639 3.87866,-1.49158 l 2.62701,-0.95941 0.59025,-0.65221 0.59026,-0.65222 v -1.20151 -1.20152 l -1.13554,-1.91394 -1.13553,-1.91395 -0.86318,-0.30356 -0.86317,-0.30356 -2.83084,1.06751 c -1.55697,0.58712 -5.43046,2.07717 -8.60777,3.31121 l -5.77692,2.2437 -8.95611,-3.25225 -8.95611,-3.25224 h -0.9306 -0.93058 l -0.66556,0.72553 c -0.36606,0.39904 -1.04433,1.48252 -1.50727,2.40772 l -0.84172,1.68218 v 0.78115 0.78114 l 0.56431,0.67181 0.5643,0.6718 3.06335,1.16435 c 1.68484,0.64039 4.36931,1.64736 5.96548,2.2377 1.59616,0.59035 4.86105,1.82167 7.2553,2.73629 2.39426,0.91461 5.8768,2.21952 7.739,2.89979 1.8622,0.68028 5.63496,2.11748 8.38391,3.19378 l 4.9981,1.95692 0.99178,0.009 0.99178,0.009 0.68084,-0.72553 z m 18.79462,-20.39547 c 0.83883,-1.77352 2.27311,-5.23824 3.18728,-7.69938 l 1.66214,-4.4748 1.10669,-4.3928 c 2.52213,-10.01107 3.20605,-17.93805 2.38755,-27.67284 -0.63721,-7.57872 -2.2126,-14.90229 -5.01538,-23.31517 l -1.45028,-4.35318 -2.88654,-5.8922 -2.88655,-5.89221 -2.78062,-4.104 c -1.52936,-2.2572 -3.97598,-5.55961 -5.43696,-7.3387 l -2.65634,-3.23471 -3.90346,-3.73973 c -11.57136,-11.086 -26.1948,-19.3081 -41.96522,-23.59513 -3.23268,-0.87878 -9.80982,-2.20256 -13.8657,-2.79075 -1.33014,-0.1929 -5.46566,-0.43817 -9.19006,-0.54505 l -6.77162,-0.19433 -3.73521,0.38526 c -3.67487,0.37904 -8.61104,1.14165 -8.83425,1.36485 -0.0626,0.0626 2.62248,0.0621 5.96695,-9.7e-4 l 6.08085,-0.11503 4.77525,0.53885 c 12.96615,1.46311 24.69302,5.55175 37.07953,12.92799 7.80393,4.64728 14.06007,9.55223 20.75237,16.27031 l 4.043,4.05858 3.34643,4.17695 c 12.20675,15.23609 19.47735,32.82458 21.78759,52.70673 l 0.54329,4.67564 -0.004,6.93285 -0.004,6.93285 -0.68825,5.15933 c -0.8933,6.69644 -2.70797,14.9858 -4.37665,19.99241 -0.39188,1.17577 2.18145,-3.49368 3.73184,-6.77162 z m -39.58536,1.57349 0.20003,-0.20003 -1.01285,-1.97656 -1.01285,-1.97657 -0.13104,-3.06335 -0.13104,-3.06335 0.6883,-1.82738 c 0.70781,-1.87917 1.76945,-3.49318 2.29769,-3.49318 h 0.29905 v 0.9334 c 0,0.51338 0.29318,1.88261 0.6515,3.04273 l 0.6515,2.10933 1.36387,1.65129 c 0.75012,0.90822 1.8315,2.22956 2.40307,2.93631 l 1.03921,1.28501 0.34366,1.27627 0.34367,1.27627 h 0.56787 0.56787 l 1.8922,-1.53167 1.89219,-1.53168 1.01372,-1.47861 1.01371,-1.47861 0.56997,-1.81211 0.56998,-1.8121 v -2.58528 -2.58529 l -0.53759,-1.84922 c -0.29567,-1.01707 -0.88999,-2.54468 -1.32072,-3.39467 l -0.78313,-1.54545 -0.55888,0.007 -0.55886,0.007 -0.96738,1.44327 c -0.53205,0.7938 -1.0762,1.44358 -1.20922,1.44397 -0.13301,3.2e-4 -0.24184,-0.40828 -0.24184,-0.90815 0,-1.23286 -0.86623,-4.06446 -1.84284,-6.024 -0.44195,-0.88676 -1.59401,-2.65389 -2.56013,-3.92696 l -1.75658,-2.31467 -2.19607,-1.79667 c -2.04663,-1.67442 -2.92251,-2.13826 -2.93601,-1.55483 -0.003,0.13301 -0.20928,1.20274 -0.45821,2.37716 l -0.45261,2.13532 -0.96834,1.89541 c -0.53259,1.04247 -2.42602,3.92689 -4.20763,6.40982 l -3.23929,4.51442 -0.69323,2.05208 -0.69323,2.05208 0.13837,2.62356 0.13838,2.62356 0.8187,1.77352 c 0.45028,0.97544 1.40066,2.49905 2.11194,3.38581 l 1.29324,1.61229 1.81373,1.0842 c 2.70254,1.61552 5.18611,2.37917 5.78615,1.77913 z m -15.05222,-4.77202 0.17561,-0.45764 -0.47993,-0.75158 c -0.26396,-0.41337 -0.78286,-1.74634 -1.15311,-2.96214 l -0.67317,-2.21056 v -2.20737 c 0,-1.21405 0.15708,-2.97632 0.3491,-3.91615 l 0.3491,-1.70877 1.26483,-2.57967 1.26484,-2.57966 1.72399,-2.02444 1.72399,-2.02443 0.85403,-1.74415 c 0.46972,-0.95929 0.85403,-1.99878 0.85403,-2.31 0,-0.31121 -0.59943,-1.59002 -1.33206,-2.8418 -4.24202,-7.24791 -24.22697,-40.97283 -26.95404,-45.48536 -0.5359,-0.88676 -3.32325,-5.56643 -6.19412,-10.39928 -2.87086,-4.83284 -5.35996,-8.78698 -5.53134,-8.78698 -0.17137,0 -0.67599,0.6167 -1.12137,1.37045 -1.08289,1.83263 -11.06508,19.31566 -13.118,22.97514 -0.89543,1.59617 -2.31044,4.06297 -3.14448,5.48179 -0.83404,1.41881 -3.22712,5.62689 -5.31796,9.35128 -2.09083,3.7244 -5.07061,9.02077 -6.62173,11.76973 -1.55112,2.74895 -4.74298,8.40809 -7.09301,12.57587 -7.26531,12.88496 -8.37565,14.8446 -11.1908,19.75056 l -2.72924,4.75625 h -6.51597 -6.51596 l -0.38695,0.38695 -0.38695,0.38695 v 2.93437 2.93437 l 0.38695,0.38695 0.38695,0.38695 h 48.47557 48.47559 z m -54.04637,-7.14299 c 0,-0.10124 1.07319,-1.80624 2.38486,-3.78888 4.49764,-6.79837 10.06485,-17.17965 15.07052,-28.10229 1.54192,-3.36455 2.9281,-6.1589 3.08039,-6.20967 l 0.2769,-0.0923 2.06524,4.59738 c 4.7878,10.65799 10.99319,22.24752 15.55776,29.05652 1.40912,2.102 2.63987,4.02466 2.73501,4.27257 l 0.17297,0.45075 h -20.67182 c -11.36951,0 -20.67183,-0.0828 -20.67183,-0.18408 z"
         id="path2445" />
      <path
         style="fill:#00793f;stroke-width:0.322458"
         d="m 397.27287,474.34422 c -7.094,-8.56003 -12.93109,-16.30535 -25.93849,-34.41821 -9.64421,-13.42958 -26.98746,-39.24064 -35.96718,-53.52805 -6.49476,-10.33365 -13.47599,-21.94264 -18.13104,-30.14984 -1.05622,-1.8622 -2.58304,-4.54666 -3.39292,-5.96548 -2.34417,-4.10671 -10.45012,-20.23818 -12.47653,-24.82927 -1.01764,-2.30558 -2.33281,-5.28026 -2.92262,-6.6104 -2.07281,-4.67461 -5.55613,-13.77155 -6.85725,-17.90817 -3.84475,-12.2235 -5.14395,-18.83838 -5.86159,-29.84418 l -0.34879,-5.34912 0.34233,-5.77569 c 0.742,-12.51848 2.37974,-20.73925 6.29111,-31.57863 3.68717,-10.2181 9.52564,-20.40579 17.09015,-29.8211 l 2.97933,-3.70827 4.14189,-4.15371 c 4.70722,-4.72064 7.84168,-7.41204 13.1152,-11.26137 9.6207,-7.02246 18.68841,-11.78149 29.56297,-15.51559 6.64776,-2.2827 11.56415,-3.52947 18.59154,-4.7147 l 5.51317,-0.92985 5.12795,-0.36786 5.12796,-0.36786 4.9981,0.20872 c 25.9012,1.08159 49.15536,9.99119 68.65589,26.30482 4.79271,4.00946 11.46574,10.78512 15.08614,15.31817 3.17197,3.97158 7.87889,11.02515 10.38659,15.56487 6.2296,11.2775 10.59659,25.05573 12.13259,38.27929 l 0.52438,4.51441 0.0199,7.57777 0.0199,7.57777 -0.37591,3.54704 c -0.62823,5.92792 -1.61398,11.29125 -3.31891,18.05765 l -1.625,6.44917 -2.19354,6.61039 c -5.48475,16.52866 -12.84264,33.75553 -23.20706,54.3342 -6.04412,12.00065 -10.55043,20.48291 -15.16091,28.53754 -1.37048,2.39425 -2.97436,5.22382 -3.56419,6.28794 -0.58983,1.06411 -3.9009,6.6507 -7.35793,12.41464 -5.70813,9.51722 -8.79404,14.51877 -15.42248,24.99634 -3.18981,5.04212 -13.05297,19.79503 -15.41018,23.04992 -1.09174,1.50749 -3.92566,5.42536 -6.29759,8.70637 -2.37193,3.28101 -5.12621,6.98122 -6.12061,8.22268 -0.9944,1.24147 -2.1365,2.72881 -2.538,3.3052 l -0.73,1.04799 -0.54234,-0.004 -0.54235,-0.004 -3.40373,-4.10711 z m 3.26266,-88.35604 c 6.67636,-4.56627 18.97884,-14.30732 27.56965,-21.82954 16.02183,-14.02892 28.3041,-27.20949 38.30938,-41.11124 4.76078,-6.61484 11.47695,-17.42518 15.0574,-24.2364 l 2.81765,-5.36014 1.7831,-4.48572 c 2.9931,-7.52977 4.92094,-14.95864 6.05368,-23.32776 l 0.41462,-3.06335 -3.3e-4,-5.64302 -3.2e-4,-5.64302 -0.40383,-3.54704 c -1.16365,-10.21938 -4.33427,-21.69745 -8.33889,-30.18722 -6.79644,-14.40846 -16.6658,-26.04324 -30.23791,-35.64684 -8.74589,-6.18857 -19.33067,-11.0966 -30.79475,-14.27912 l -4.67565,-1.298 -4.78712,-0.81281 -4.78712,-0.8128 -5.6122,-0.36585 -5.61219,-0.36585 -5.40599,0.35242 c -6.8197,0.44458 -13.21488,1.41344 -18.72841,2.83733 -21.35166,5.51413 -39.9746,18.37504 -52.9445,36.5632 -4.30434,6.03614 -8.54286,14.77732 -11.10136,22.89453 l -1.16883,3.70827 -1.10442,5.48179 -1.10443,5.48179 -0.33223,3.54704 -0.33224,3.54704 1.3e-4,6.1267 1.2e-4,6.12671 0.50477,4.35318 c 3.24599,27.99371 18.2661,55.06962 46.57333,83.95519 12.20055,12.44981 26.84026,25.3797 40.24641,35.54592 l 4.41405,3.34728 0.50384,0.004 c 0.27712,0.002 1.72818,-0.83329 3.22459,-1.85674 z"
         id="path2441" />
    </g>
  </g>
</svg>
