<?xml version="1.0" encoding="UTF-8" standalone="no"?>
<svg
   xmlns:dc="http://purl.org/dc/elements/1.1/"
   xmlns:cc="http://creativecommons.org/ns#"
   xmlns:rdf="http://www.w3.org/1999/02/22-rdf-syntax-ns#"
   xmlns:svg="http://www.w3.org/2000/svg"
   xmlns="http://www.w3.org/2000/svg"
   xmlns:sodipodi="http://sodipodi.sourceforge.net/DTD/sodipodi-0.dtd"
   xmlns:inkscape="http://www.inkscape.org/namespaces/inkscape"
   version="1.1"
   id="svg1691"
   width="361"
   height="530"
   viewBox="110 0 381 530"
   sodipodi:docname="hvo_pin_vector_03.svg"
   inkscape:version="1.0.2-2 (e86c870879, 2021-01-15)">
  <metadata
     id="metadata1697">
    <rdf:RDF>
      <cc:Work
         rdf:about="">
        <dc:format>image/svg+xml</dc:format>
        <dc:type
           rdf:resource="http://purl.org/dc/dcmitype/StillImage" />
        <dc:title></dc:title>
      </cc:Work>
    </rdf:RDF>
  </metadata>
  <defs
     id="defs1695" />
  <sodipodi:namedview
     pagecolor="#ffffff"
     bordercolor="#666666"
     borderopacity="1"
     objecttolerance="10"
     gridtolerance="10"
     guidetolerance="10"
     inkscape:pageopacity="0"
     inkscape:pageshadow="2"
     inkscape:window-width="3440"
     inkscape:window-height="1334"
     id="namedview1693"
     showgrid="false"
     inkscape:zoom="2.1101095"
     inkscape:cx="178.49507"
     inkscape:cy="265.55102"
     inkscape:window-x="-11"
     inkscape:window-y="-11"
     inkscape:window-maximized="1"
     inkscape:current-layer="g1699" />
  <g
     inkscape:groupmode="layer"
     inkscape:label="Image"
     id="g1699"
     style="display:inline">
    <g
       id="g2423"
       transform="translate(-36.964906,7.1086358)">
      <ellipse
         style="fill:#ffffff;fill-opacity:1;stroke-width:4.0088"
         id="path2416"
         cx="361.97592"
         cy="172.5029"
         rx="59.71254"
         ry="88.147087" />
      <g
         id="g2408"
         transform="translate(182.92889,-11.373817)">
        <path
           style="fill:#6ed4d0;stroke-width:0.345559"
           d="M 181.1592,433.40615 C 170.16043,419.52212 152.79819,394.2143 131.31563,360.75243 105.55383,320.62509 92.087816,297.61841 81.489649,275.62479 73.564603,259.17851 68.523863,246.30888 64.870326,233.19362 62.280561,223.89703 60.951345,217.23938 60.119413,209.39773 l -0.513248,-4.83782 -0.212947,-7.77507 -0.212948,-7.77507 0.414007,-5.35616 c 2.048946,-26.50806 10.073644,-47.29488 25.879988,-67.03839 1.445489,-1.80554 5.044974,-5.75107 7.998851,-8.76784 l 5.370683,-5.48504 4.492261,-3.609715 c 11.00555,-8.843421 21.5297,-14.734288 34.74512,-19.448492 7.62147,-2.718732 14.73369,-4.4296 23.99986,-5.773249 l 4.1467,-0.601297 11.05788,-0.01379 11.05787,-0.01375 4.14671,0.458954 c 23.01431,2.54721 43.58584,11.139917 62.731,26.202685 l 2.92515,2.301404 6.23205,6.252 6.23205,6.252 2.9035,3.62836 c 1.59692,1.99561 4.25315,5.68227 5.90274,8.19259 l 2.99924,4.56421 2.77697,5.45699 2.77698,5.45698 2.24672,5.70172 c 4.51532,11.45897 6.48828,19.38463 8.08598,32.48252 l 0.61121,5.0106 -0.008,10.8851 -0.008,10.8851 -0.61038,5.0106 c -1.71846,14.10685 -6.32861,30.77931 -13.52052,48.89655 -4.18129,10.53311 -7.32692,17.54952 -13.63321,30.40917 -10.13101,20.65894 -21.7103,41.87513 -38.33432,70.23819 -12.04238,20.54612 -33.3151,54.10871 -43.52862,68.6764 -3.80166,5.42237 -4.83687,6.73839 -5.30053,6.73839 -0.15338,0 -1.41834,-1.43839 -2.81103,-3.19642 z m 10.12154,-171.24858 c 4.20167,-0.98205 6.92489,-1.94404 11.04819,-3.90285 l 3.61867,-1.71907 3.2925,-2.20731 3.2925,-2.20731 2.82262,-2.61698 c 4.85193,-4.49845 8.803,-9.64935 11.4653,-14.94699 2.71538,-5.40325 4.17453,-10.23935 5.08879,-16.86592 l 0.57212,-4.14671 -0.1896,-4.66504 -0.1896,-4.66504 -0.56379,-2.93725 c -0.8001,-4.16845 -2.0723,-8.19866 -4.03365,-12.77823 -2.44601,-5.71123 -5.11221,-10.18771 -17.39584,-29.20715 -6.18565,-9.57759 -16.54991,-26.11049 -23.82889,-38.01145 -2.44114,-3.99121 -5.12975,-8.38412 -5.9747,-9.76204 -0.84494,-1.37791 -1.65963,-2.5053 -1.81042,-2.5053 -0.30854,0 -2.76298,4.14362 -14.94228,25.22579 -4.66638,8.07743 -10.92903,18.88478 -13.91698,24.01632 -14.39643,24.72457 -17.46762,31.09197 -19.51269,40.45505 l -0.74937,3.43091 -0.24455,4.66504 -0.24454,4.66504 0.26004,3.98752 c 0.29755,4.56261 0.90023,7.75135 2.34865,12.42652 l 1.01704,3.28281 1.59914,3.09872 c 2.08435,4.03896 3.33163,5.88891 6.65444,9.86983 l 2.73911,3.28161 3.06899,2.56157 c 4.10097,3.42293 7.98787,5.91871 12.67097,8.13605 4.65173,2.20249 8.50443,3.45259 13.37767,4.34071 l 3.62836,0.66124 6.04728,-0.13678 6.04727,-0.13679 z m -14.5764,-13.71095 c -6.92892,-1.166 -14.51498,-4.70387 -20.12406,-9.38512 l -2.39073,-1.99527 -2.69957,-3.25961 -2.69957,-3.2596 -2.08134,-4.18181 -2.08134,-4.18181 -0.8372,-2.97466 -0.83721,-2.97466 -0.41844,-3.59095 -0.41845,-3.59096 0.21355,-3.98962 0.21356,-3.98963 0.68108,-3.2671 c 1.51449,-7.26489 4.93107,-15.40936 11.15539,-26.59232 2.8372,-5.09747 9.15609,-14.74673 9.82513,-15.00346 l 0.46759,-0.17944 v 0.52025 c 0,0.28613 -0.85957,3.08051 -1.91016,6.20973 -2.13981,6.3735 -3.90035,13.3331 -5.06694,20.03013 l -0.78236,4.49126 -0.001,8.29341 -0.001,8.29341 0.77585,3.85821 c 1.48299,7.37484 3.90152,13.23913 7.95356,19.2853 l 2.31549,3.45502 3.28281,3.31308 c 1.80554,1.82219 4.37132,4.11572 5.70172,5.09674 4.23673,3.1241 9.5732,5.73083 14.68624,7.17386 3.226,0.91046 4.12339,1.32391 3.72917,1.71813 -0.10928,0.10928 -1.57618,0.42228 -3.25978,0.69556 l -3.06108,0.49688 -4.83782,-0.0341 -4.83782,-0.0341 -2.65464,-0.44673 z"
           id="path2414" />
        <path
           style="fill:#159c92;stroke-width:0.345559"
           d="M 179.84228,431.15742 C 175.45971,425.4763 167.22355,414.04401 160.94827,404.93139 156.11538,397.91333 141.3192,375.5872 135.28058,366.20113 107.73744,323.38971 96.388491,304.30903 84.869693,281.44672 71.84907,255.60359 64.88881,236.20704 61.361447,215.93493 c -0.740719,-4.257 -1.402405,-12.26271 -1.61134,-19.49565 l -0.214619,-7.42951 0.584826,-6.7384 c 1.982664,-22.8443 8.299601,-40.89808 20.45564,-58.4621 7.223973,-10.43777 16.077193,-19.62953 26.339346,-27.346538 5.80102,-4.362292 9.7446,-6.829522 16.48527,-10.313725 12.23179,-6.322514 24.98984,-10.328151 39.02602,-12.252975 l 4.49227,-0.616041 10.71232,-0.0088 10.71231,-0.0088 4.90951,0.608356 c 19.20806,2.380143 35.80067,8.409938 51.76212,18.810494 9.08775,5.921618 16.93394,12.670799 24.04115,20.679849 10.50148,11.83402 17.72889,24.50547 23.14254,40.57459 3.02987,8.99345 4.61833,16.50768 5.91694,27.99025 l 0.44943,3.97393 -0.0145,10.36676 -0.0145,10.36676 -0.78503,5.8745 c -0.43176,3.23097 -1.16416,7.74051 -1.62755,10.0212 -2.65794,13.08185 -8.00759,29.38356 -15.25235,46.47764 -13.02523,30.73317 -40.79365,81.10725 -71.38744,129.50237 -5.65355,8.94313 -17.2232,26.43762 -21.48578,32.4887 l -3.45559,4.90548 h -0.51834 -0.51834 l -3.66339,-4.74887 z m 11.43846,-168.48994 c 7.02406,-1.6461 12.18972,-3.87763 18.02115,-7.78502 l 3.57627,-2.39631 2.82933,-2.63481 c 5.11811,-4.76624 8.90368,-9.76577 11.79619,-15.57902 l 1.7166,-3.44995 1.21488,-3.80115 1.21488,-3.80114 0.6328,-3.80115 0.63278,-3.80114 -0.032,-5.35616 -0.032,-5.35616 -0.73715,-3.64877 c -0.98304,-4.86583 -2.83498,-10.37483 -5.04633,-15.0114 -2.22104,-4.65689 -5.26778,-9.677 -16.14859,-26.60802 -9.40246,-14.63063 -25.47049,-40.38781 -30.0221,-48.12566 l -1.88411,-3.20304 -0.51214,0.0965 -0.51215,0.0965 -1.36336,2.24259 c -0.74984,1.23343 -4.00185,6.82989 -7.22667,12.43658 -6.12788,10.65394 -9.6698,16.75504 -17.75394,30.58194 -8.01483,13.70834 -13.1792,22.85981 -16.01369,28.37692 l -2.68415,5.22449 -1.38617,4.27838 c -0.7624,2.3531 -1.74913,5.91114 -2.19274,7.90674 l -0.80656,3.62836 0.0204,7.77507 0.0204,7.77507 0.75567,3.40045 c 2.02034,9.09136 5.27921,15.63925 11.298,22.70056 4.32704,5.07653 10.48547,9.81444 16.93238,13.02673 6.13048,3.05462 10.25409,4.40063 16.73487,5.46253 l 2.96197,0.48533 5.18338,-0.14281 5.18338,-0.14281 3.62837,-0.85031 z m -11.23065,-14.39612 c -5.23412,-0.46948 -10.03966,-1.82708 -14.76463,-4.17112 -5.62744,-2.79175 -9.30394,-5.69239 -13.33264,-10.519 l -2.68599,-3.21798 -1.76595,-3.39881 -1.76595,-3.39881 -1.03807,-3.28281 -1.03808,-3.28281 -0.42703,-3.41872 -0.42702,-3.41872 0.20623,-4.87469 0.20622,-4.87469 0.6689,-3.11002 c 1.93421,-8.99311 8.22007,-22.27173 16.72621,-35.33338 1.5162,-2.3282 2.8691,-4.23309 3.00646,-4.23309 0.13736,0 -0.49387,2.21589 -1.40272,4.92421 -2.75294,8.20358 -4.78383,16.93856 -5.68424,24.44828 l -0.47647,3.97392 -0.0108,4.38817 -0.0108,4.38818 0.52319,3.99108 c 1.30699,9.97034 3.9839,16.85063 9.75337,25.06854 l 1.57882,2.24884 3.50601,3.47722 3.50601,3.47723 3.45941,2.30302 c 4.09139,2.72375 8.3848,4.77333 12.49276,5.96377 1.63733,0.47448 3.04367,0.9294 3.1252,1.01092 0.25183,0.25184 -1.33067,0.5129 -5.28947,0.8726 -4.09989,0.37252 -4.47169,0.37246 -8.63897,-0.001 z m 96.31789,-25.55476 c 10.27608,-23.91382 11.31767,-50.97931 2.86641,-74.48276 l -1.6153,-4.49226 -2.416,-4.87949 -2.41599,-4.87949 -3.02128,-4.62337 c -3.85755,-5.90311 -7.63248,-10.57806 -12.42907,-15.39243 -11.79648,-11.8402 -25.63203,-20.465413 -41.77701,-26.044182 l -3.88403,-1.342094 -5.44605,-1.200582 c -5.35045,-1.179509 -10.1197,-1.964909 -11.60472,-1.911071 -1.05767,0.03834 -0.70608,0.12293 5.12199,1.232245 l 5.18338,0.986605 -1.90057,0.107562 -1.90057,0.107559 -2.01798,-0.566088 c -2.09533,-0.587791 -3.04465,-0.52416 -1.3623,0.09131 10.0237,3.667075 15.37921,5.984862 20.6277,8.927363 19.31168,10.826843 35.03919,27.263733 45.10558,47.140023 6.60036,13.03254 10.22956,24.90854 12.30236,40.25759 l 0.55998,4.1467 0.19108,9.1573 0.19107,9.15731 -0.41062,4.66504 c -0.57243,6.50352 -1.66925,13.75836 -2.65198,17.54142 -0.45731,1.76041 -0.82423,3.31543 -0.81538,3.45559 0.0286,0.45285 1.77341,-3.09689 3.5193,-7.1598 z"
           id="path2412" />
        <path
           style="fill:#006d69;stroke-width:0.345559"
           d="m 182.10974,433.75171 c -12.17626,-15.65692 -26.9473,-37.16228 -48.59707,-70.75314 -4.47105,-6.93709 -9.34264,-14.55666 -10.82577,-16.93238 -1.48313,-2.37572 -3.34705,-5.33024 -4.14205,-6.56561 -0.795,-1.23538 -3.33553,-5.29719 -5.64561,-9.02626 -27.912461,-45.05787 -44.375968,-80.42341 -49.76855,-106.90868 -1.551337,-7.61928 -1.752957,-8.8524 -2.316501,-14.16791 l -0.512899,-4.83782 -0.204353,-8.12063 -0.204353,-8.12063 0.565984,-6.39284 c 0.673909,-7.61189 1.229297,-11.33327 2.650815,-17.76179 2.658151,-12.02095 7.191463,-23.42352 13.339902,-33.55367 14.678997,-24.18507 36.481325,-41.930094 62.464315,-50.840028 7.79614,-2.673408 14.76951,-4.324349 23.37057,-5.532971 l 4.28913,-0.602707 10.8851,-0.02073 10.88509,-0.02073 3.80115,0.447236 c 22.44318,2.640618 41.81292,10.316537 59.32276,23.508665 11.20036,8.438485 19.95129,17.748375 27.66579,29.432915 l 3.08001,4.66505 2.89011,5.87449 c 4.35532,8.85272 7.41905,17.11968 9.65992,26.06568 1.14493,4.57079 2.07987,10.10651 3.00972,17.82028 l 0.4582,3.80114 -0.0165,10.71232 -0.0165,10.71232 -0.61154,5.0106 c -0.78925,6.46671 -1.98023,12.66104 -3.72064,19.35129 -5.7605,22.1437 -15.79959,46.1174 -33.19528,79.27148 -8.50639,16.21211 -26.64276,48.08451 -35.51182,62.40757 -1.47109,2.37571 -4.66578,7.58501 -7.09933,11.57621 -5.68593,9.32536 -14.63043,23.42864 -20.16256,31.7914 -5.73561,8.67035 -13.54717,19.86963 -13.85919,19.86963 -0.13662,0 -1.00423,-0.97189 -1.92802,-2.15974 z m 5.76758,-101.22527 c 14.92214,-11.62883 31.21665,-27.05865 44.27174,-41.92242 13.24431,-15.0792 25.51118,-31.94422 33.6801,-46.30486 7.86689,-13.82968 10.61163,-19.49602 13.51473,-27.90033 3.10789,-8.99713 4.85201,-17.29661 5.61051,-26.69794 l 0.41819,-5.18339 -0.22097,-6.73839 -0.22098,-6.73839 -0.50631,-3.5043 c -1.5043,-10.41168 -4.24765,-19.2951 -8.84224,-28.63266 -10.63097,-21.60524 -29.67021,-39.061931 -53.7194,-49.254236 -8.36846,-3.546638 -17.59049,-5.976092 -26.95358,-7.100651 l -4.83782,-0.581046 -8.98453,-0.0056 -8.98452,-0.0056 -4.44461,0.578147 c -5.63127,0.732502 -10.81195,1.835069 -17.09279,3.637731 l -4.95059,1.420865 -4.72506,1.918732 c -6.12245,2.48618 -11.57672,5.357991 -17.16517,9.037876 -5.0972,3.356412 -6.06353,4.101632 -11.53836,8.898192 -6.44052,5.6426 -12.457417,12.57994 -17.762503,20.47977 l -2.607783,3.88326 -2.241117,4.41014 c -5.056813,9.95097 -7.903511,18.71965 -9.621121,29.63593 l -0.70683,4.49226 -0.176331,8.64963 -0.176329,8.64963 0.39873,4.78764 c 0.441721,5.30388 1.670438,12.45833 3.001962,17.47957 1.324802,4.99589 4.224226,13.62826 5.739764,17.08884 8.923804,20.37666 24.791348,43.01756 46.488378,66.33279 8.65054,9.29572 29.26838,28.17426 44.31815,40.57951 l 2.93725,2.42112 0.5705,0.0261 0.5705,0.0261 4.95844,-3.86411 z"
           id="path2410" />
      </g>
    </g>
  </g>
</svg>
