<?xml version="1.0" encoding="UTF-8" standalone="no"?>
<svg
   xmlns:dc="http://purl.org/dc/elements/1.1/"
   xmlns:cc="http://creativecommons.org/ns#"
   xmlns:rdf="http://www.w3.org/1999/02/22-rdf-syntax-ns#"
   xmlns:svg="http://www.w3.org/2000/svg"
   xmlns="http://www.w3.org/2000/svg"
   xmlns:sodipodi="http://sodipodi.sourceforge.net/DTD/sodipodi-0.dtd"
   xmlns:inkscape="http://www.inkscape.org/namespaces/inkscape"
   version="1.1"
   id="svg1691"
   width="361"
   height="530"
   viewBox="70 0 411 530"
   sodipodi:docname="sightseeing_pin_vector_03.svg"
   inkscape:version="1.0.2-2 (e86c870879, 2021-01-15)">
  <metadata
     id="metadata1697">
    <rdf:RDF>
      <cc:Work
         rdf:about="">
        <dc:format>image/svg+xml</dc:format>
        <dc:type
           rdf:resource="http://purl.org/dc/dcmitype/StillImage" />
        <dc:title></dc:title>
      </cc:Work>
    </rdf:RDF>
  </metadata>
  <defs
     id="defs1695" />
  <sodipodi:namedview
     pagecolor="#ffffff"
     bordercolor="#666666"
     borderopacity="1"
     objecttolerance="10"
     gridtolerance="10"
     guidetolerance="10"
     inkscape:pageopacity="0"
     inkscape:pageshadow="2"
     inkscape:window-width="3440"
     inkscape:window-height="1334"
     id="namedview1693"
     showgrid="false"
     inkscape:zoom="1.4920728"
     inkscape:cx="666.40212"
     inkscape:cy="304.59179"
     inkscape:window-x="-11"
     inkscape:window-y="-11"
     inkscape:window-maximized="1"
     inkscape:current-layer="g1699" />
  <g
     inkscape:groupmode="layer"
     inkscape:label="Image"
     id="g1699"
     style="display:inline">
    <g
       id="g2533">
      <ellipse
         style="fill:#ffffff;fill-opacity:1;stroke-width:3.7817"
         id="path2523"
         cx="362.60742"
         cy="211.11571"
         rx="87.462227"
         ry="85.116493" />
      <g
         id="g2513"
         transform="translate(178.32451,1.8956362)">
        <path
           style="fill:#f7ccb1;stroke-width:0.329863"
           d="m 186.87288,427.26326 c -3.13177,-3.29098 -7.37186,-8.74374 -15.40016,-19.80471 -2.96285,-4.08205 -7.56611,-10.39068 -10.22946,-14.01918 -23.56596,-32.10569 -32.17629,-44.90935 -44.69867,-66.46738 -1.94961,-3.35636 -4.84059,-8.32904 -6.42442,-11.05041 -18.526353,-31.83243 -27.641308,-50.42631 -33.284076,-67.89722 -2.472346,-7.65479 -3.726113,-12.70145 -4.820275,-19.40259 l -0.843166,-5.16394 -0.251543,-5.30316 -0.251544,-5.30316 0.240642,-5.11039 c 0.645789,-13.7143 3.944933,-26.92154 9.945579,-39.81447 3.036264,-6.52369 8.353107,-15.07174 13.099123,-21.05985 l 2.745123,-3.46356 5.964687,-5.95275 5.96469,-5.95275 3.95836,-3.06944 c 5.49532,-4.26124 11.33063,-8.0655 17.15287,-11.1826 12.13232,-6.49538 25.0814,-10.5476 39.91342,-12.49032 l 4.61809,-0.60487 9.73095,-3.3e-4 9.73096,-3.3e-4 4.61808,0.61029 c 22.55871,2.98123 40.6621,10.64075 58.88054,24.91228 l 3.1337,2.4548 5.77312,5.80309 5.77311,5.80309 2.93866,3.79343 c 7.80413,10.07408 13.23932,20.10251 17.1993,31.73423 l 1.83002,5.37535 1.14974,4.87614 c 0.63236,2.68188 1.44459,6.91237 1.80494,9.4011 l 0.6552,4.52495 0.20289,7.09206 0.20289,7.09205 -0.38994,5.11288 c -0.42543,5.57811 -0.73951,8.01152 -1.68173,13.02962 -3.00308,15.99386 -8.82037,33.11091 -17.8613,52.55588 -7.40285,15.92186 -18.88974,38.1528 -28.15629,54.49174 -5.55543,9.79545 -21.76337,35.77127 -31.89799,51.12164 -5.05164,7.65147 -19.73512,27.64671 -24.10229,32.82137 -2.23619,2.64965 -3.10571,3.46356 -3.7002,3.46356 -0.23141,0 -1.68655,-1.33014 -3.23363,-2.95584 z m 62.58446,-174.36907 0.51836,-0.51836 v -4.07616 -4.07617 l -0.51836,-0.51835 -0.51835,-0.51836 h -65.22334 -65.22333 l -0.39584,0.39584 -0.39584,0.39583 v 4.37079 4.37078 l 0.57726,0.33623 0.57726,0.33622 65.04192,0.01 65.04191,0.01 0.51835,-0.51836 z m -6.73163,-13.99562 0.31276,-0.49479 0.005,-1.66874 0.005,-1.66873 -0.41233,-0.56008 -0.41233,-0.56008 -58.71561,0.0847 -58.71561,0.0847 -0.0982,2.25626 -0.0982,2.25627 0.38824,0.4678 0.38824,0.4678 58.5201,-0.0852 58.5201,-0.0852 z m -86.33678,-9.31863 c 0.0821,-0.22678 0.0919,-1.15452 0.0217,-2.06164 -0.0702,-0.90712 -0.4937,-7.80951 -0.94115,-15.33863 -0.44746,-7.52912 -1.05522,-17.43545 -1.3506,-22.01405 l -0.53704,-8.32474 0.19152,-0.49909 0.19152,-0.4991 h 2.00452 2.00453 l 0.80966,-0.80967 0.80967,-0.80966 v -1.75584 -1.75585 l -0.5135,-0.73312 -0.5135,-0.73312 h -13.65901 -13.659 l -0.34147,0.63804 -0.34147,0.63804 v 1.93782 1.93781 l 0.46762,0.64031 0.46762,0.64031 2.41868,0.16493 2.41869,0.16493 -0.07,3.79342 c -0.0747,4.0485 -1.0456,22.15197 -1.92494,35.89258 -0.29386,4.59196 -0.4523,8.56268 -0.35209,8.82383 l 0.1822,0.47482 h 11.03327 11.03328 z m 38.37225,-0.0613 c 0.17293,-0.45065 -0.0111,-3.80453 -1.53088,-27.89456 -0.36053,-5.71487 -0.78192,-12.54303 -0.93641,-15.17369 l -0.28089,-4.78302 0.29224,-0.37447 0.29224,-0.37447 2.17502,-0.1385 2.17502,-0.13849 0.45491,-0.62213 0.45492,-0.62214 v -2.23439 -2.23438 l -0.63804,-0.34147 -0.63804,-0.34147 -13.29867,0.005 -13.29867,0.005 -0.4948,0.31284 -0.49479,0.31284 0.088,2.40348 0.088,2.40348 0.69075,0.57726 0.69076,0.57726 h 1.92317 1.92316 l 0.25528,0.41233 0.25527,0.41232 -0.0814,2.14411 c -0.0447,1.17926 -0.37572,6.89414 -0.73549,12.69973 -0.35978,5.80559 -0.93739,15.52685 -1.2836,21.6028 l -0.62946,11.04718 0.34488,0.41556 0.34488,0.41555 h 10.85544 10.85544 l 0.18176,-0.47366 z m 38.32371,-1.71149 c 0.0534,-1.11112 -0.27646,-7.86506 -0.73307,-15.00877 -1.19527,-18.70018 -1.55742,-25.11092 -1.61883,-28.65703 l -0.0543,-3.1337 2.20565,-0.18964 2.20565,-0.18964 0.51572,-0.42801 0.51572,-0.42801 v -2.36761 -2.36761 l -0.39583,-0.39584 -0.39584,-0.39583 h -13.55737 -13.55736 l -0.39584,0.39583 -0.39584,0.39584 v 2.18002 2.18002 l 0.45884,0.62749 0.45883,0.6275 2.37019,0.13392 2.37018,0.13393 0.16545,0.43117 c 0.16031,0.41775 -0.49696,13.01059 -1.89864,36.37678 -0.37351,6.22647 -0.59688,11.53514 -0.49637,11.79705 l 0.18273,0.47621 10.97659,-0.0869 10.97659,-0.0869 z m 13.52621,-57.91588 0.39583,-0.39584 v -2.06653 -2.06653 l -0.69348,-0.37114 c -0.38142,-0.20413 -3.09042,-1.23391 -6.02,-2.28839 -7.98512,-2.87421 -21.98561,-8.33341 -49.47205,-19.29061 l -7.20087,-2.87056 -8.46762,3.36806 c -28.42977,11.30819 -40.87927,16.12401 -49.86542,19.28937 -2.44923,0.86274 -4.6387,1.71537 -4.86548,1.89473 l -0.41232,0.32611 v 2.24116 2.24116 l 0.41232,0.16638 c 0.22678,0.0915 28.62304,0.1781 63.10279,0.19242 l 62.69046,0.026 z"
           id="path2521" />
        <path
           style="fill:#f9a258;stroke-width:0.329863"
           d="m 188.67652,428.64532 c -3.07038,-2.8325 -7.93037,-9.01087 -17.70371,-22.50622 -2.69345,-3.71921 -7.56241,-10.38419 -10.81991,-14.81108 -11.61872,-15.78965 -21.37733,-29.60626 -27.86431,-39.45138 -6.34432,-9.6286 -17.66302,-28.60052 -27.94522,-46.84054 -1.22726,-2.1771 -2.86522,-5.07165 -3.63991,-6.43233 C 93.77275,286.43039 86.670787,272.26902 82.671907,262.64871 77.053764,249.13284 73.879806,238.28445 71.95937,226.03391 l -0.594671,-3.79342 0.0041,-9.40109 0.0041,-9.4011 0.58391,-3.95835 c 2.589893,-17.55696 8.086895,-31.79412 17.981398,-46.57157 3.852365,-5.75351 11.096603,-13.94684 16.940453,-19.15986 17.99192,-16.04972 38.33701,-25.35028 62.28056,-28.47093 l 5.11288,-0.66638 6.43232,-0.19342 6.43233,-0.19343 5.11288,0.39174 c 11.47032,0.87883 21.47842,2.97639 31.77283,6.65917 l 4.67703,1.67318 6.65859,3.27847 6.6586,3.27847 5.3814,3.57865 c 13.86124,9.21777 23.92605,19.14915 32.41064,31.98096 l 2.82852,4.27777 2.77999,5.38968 c 4.43069,8.58997 7.11914,15.84952 9.24568,24.96576 5.56925,23.8749 2.8671,48.41043 -8.66996,78.7231 -2.25121,5.91488 -5.46787,13.4921 -8.47195,19.95671 -3.58314,7.71071 -13.46409,27.38199 -18.78457,37.39689 -7.52453,14.16363 -11.78655,21.51185 -21.64414,37.31707 -16.02164,25.68838 -20.7861,32.94447 -28.80683,43.87178 -11.41858,15.55643 -16.38095,21.89762 -17.68055,22.59314 l -0.59508,0.31848 z m 61.02581,-175.44884 0.60323,-0.54592 v -4.29358 -4.29359 l -0.54592,-0.60323 -0.54592,-0.60323 h -65.52563 -65.52564 l -0.39583,0.39583 -0.39584,0.39584 v 4.70065 4.70065 l 0.57726,0.33622 0.57726,0.33622 65.2869,0.01 65.28689,0.01 0.60324,-0.54592 z m -6.92712,-13.85424 0.60323,-0.54592 v -1.94974 -1.94974 l -0.34147,-0.63804 -0.34147,-0.63804 h -58.82854 -58.82855 l -0.36907,0.44471 -0.36907,0.4447 -0.0836,2.21969 -0.0837,2.21968 0.64031,0.46931 0.64031,0.46931 h 58.37919 58.37919 z m -86.24743,-9.44177 0.46116,-0.46116 -1.00792,-16.29914 c -0.55436,-8.96452 -1.23152,-19.68801 -1.5048,-23.82998 -0.27327,-4.14197 -0.41248,-7.66738 -0.30936,-7.83425 l 0.18751,-0.30339 h 1.9747 1.97471 l 0.80966,-0.80966 0.80967,-0.80967 v -2.1591 -2.1591 l -0.65973,-0.65973 -0.65973,-0.65973 H 145.02278 131.4419 l -0.60323,0.54592 -0.60323,0.54592 v 2.21343 2.21343 l 0.68366,0.86915 0.68367,0.86914 h 2.1007 2.1007 l 0.19012,0.30762 c 0.17421,0.28188 -0.55696,14.25053 -2.00724,38.3473 l -0.56947,9.46205 0.41889,0.50473 0.41889,0.50474 3.18538,0.1015 c 1.75196,0.0558 6.65949,0.0699 10.90563,0.0313 l 7.72025,-0.0702 0.46116,-0.46117 z m 38.34014,-0.10355 0.47414,-0.44662 -0.55269,-9.16258 c -0.30397,-5.03941 -0.95397,-15.62404 -1.44444,-23.52139 l -0.89176,-14.35882 0.21777,-0.56748 0.21776,-0.56748 h 1.78011 1.78012 l 0.86914,-0.68367 0.86914,-0.68366 v -2.42647 -2.42647 l -0.51836,-0.51836 -0.51835,-0.51836 h -13.72225 -13.72224 l -0.60323,0.54592 -0.60324,0.54592 v 2.27291 2.27291 l 0.80967,0.80967 0.80966,0.80966 h 2.00452 2.00453 l 0.21114,0.55024 0.21115,0.55024 -0.5642,9.26318 c -0.31032,5.09475 -0.93331,15.70049 -1.38443,23.56831 l -0.82021,14.30511 0.37201,0.44824 0.37201,0.44825 5.32652,0.0905 c 2.9296,0.0498 7.84999,0.0357 10.93421,-0.0313 l 5.60767,-0.12177 0.47413,-0.44662 z m 38.54519,0.0616 0.42535,-0.4106 -0.51311,-7.89191 c -0.2822,-4.34055 -0.73243,-11.23177 -1.0005,-15.31382 -0.92809,-14.13247 -1.46768,-24.49475 -1.29043,-24.78154 l 0.17802,-0.28805 h 1.61433 1.61433 l 0.83063,-0.37846 0.83064,-0.37847 0.37768,-1.14437 0.37767,-1.14438 -0.15373,-1.59991 -0.15373,-1.59992 -0.41972,-0.50574 -0.41973,-0.50574 h -13.79029 -13.7903 l -0.51835,0.51836 -0.51836,0.51836 v 2.39291 2.39291 l 0.74448,0.6994 0.74449,0.69941 2.14181,0.10028 2.14182,0.10029 -0.0842,2.63891 c -0.0858,2.68981 -1.41113,26.87793 -2.09919,38.31099 l -0.38,6.31428 0.21376,0.85167 0.21375,0.85166 5.02628,0.12054 c 2.76445,0.0663 7.77238,0.0582 11.12874,-0.018 l 6.10247,-0.13849 0.42535,-0.4106 z m 13.74005,-59.97466 0.5135,-0.73312 v -1.55752 -1.55753 l -0.74219,-0.82541 -0.7422,-0.82541 -6.00543,-2.16219 c -3.30299,-1.1892 -6.34598,-2.30584 -6.76219,-2.48142 -0.41622,-0.17559 -3.72552,-1.45198 -7.35402,-2.83644 -3.62849,-1.38447 -14.59677,-5.7046 -24.37395,-9.60029 l -17.77669,-7.08309 -0.79978,0.20073 c -0.43988,0.1104 -7.2842,2.77686 -15.20961,5.92546 -7.9254,3.14859 -18.71453,7.38566 -23.97585,9.41569 -5.26131,2.03003 -10.45666,4.03688 -11.5452,4.45965 -1.08855,0.42278 -3.9831,1.46595 -6.43233,2.31816 -2.44923,0.85221 -4.84151,1.74973 -5.31618,1.99449 l -0.86302,0.44503 -0.20903,1.04515 c -0.11497,0.57484 -0.20903,1.51311 -0.20903,2.08505 v 1.03989 l 0.5135,0.73312 0.5135,0.73312 h 63.13135 63.13135 z"
           id="path2519" />
        <path
           style="fill:#fb7102;stroke-width:0.329863"
           d="m 187.19333,426.58691 c -3.0405,-3.2321 -6.0642,-7.12943 -14.32867,-18.46863 -8.09809,-11.11094 -10.29747,-14.11603 -15.08888,-20.61644 -18.7195,-25.39635 -29.32192,-41.39312 -42.3045,-63.82848 -11.32082,-19.56364 -14.4303,-25.04701 -19.453921,-34.30575 -12.487521,-23.01503 -20.128698,-42.74362 -22.996962,-59.37534 -4.471705,-25.92931 1.22014,-52.46712 16.130814,-75.20876 1.130045,-1.72353 3.370788,-4.84074 4.979434,-6.92712 l 2.924809,-3.79342 6.116846,-6.10741 6.11684,-6.10741 4.64722,-3.51624 c 5.99764,-4.53802 10.08781,-7.17841 16.16733,-10.43672 l 4.91476,-2.63407 6.31996,-2.5054 6.31996,-2.5054 4.15027,-1.13747 c 5.73746,-1.57246 11.32242,-2.68499 17.3797,-3.46206 l 5.14195,-0.65964 5.90846,-0.21613 5.90846,-0.21614 5.23117,0.38543 c 7.18557,0.52943 11.40398,1.12151 17.91093,2.51392 l 5.55598,1.18891 6.2674,2.08962 6.26739,2.08961 4.03923,1.80997 c 8.05496,3.60942 16.48628,8.74399 24.32899,14.81605 l 3.95836,3.06468 5.46961,5.44308 5.46961,5.44309 2.88939,3.62849 c 7.82339,9.82458 13.7819,20.6406 17.71774,32.16164 3.57582,10.46717 5.28789,19.65406 5.76052,30.91071 l 0.21872,5.20929 -0.39278,5.7726 c -0.48311,7.10015 -0.98786,10.76843 -2.47566,17.99191 -2.38588,11.58375 -6.48892,24.3108 -12.38439,38.41466 -7.82826,18.72774 -27.43546,56.6174 -39.2669,75.88079 -3.79417,6.17747 -9.95091,16.06977 -12.20764,19.61454 -15.72403,24.69849 -15.5713,24.47418 -28.5509,41.92892 -3.65743,4.91842 -7.6711,10.15047 -8.91927,11.62678 l -2.26942,2.68419 h -0.54299 -0.54299 l -2.48598,-2.6426 z m 62.83886,-173.06056 0.60323,-0.54592 v -4.62345 -4.62345 l -0.54592,-0.60323 -0.54592,-0.60324 H 183.93029 118.317 l -0.63804,0.34147 -0.63804,0.34147 v 4.91278 4.91277 l 0.51835,0.51836 0.51836,0.51836 h 65.67566 65.67567 z m 23.28886,-10.25709 c 1.66638,-3.40172 3.75515,-8.04041 4.64171,-10.30822 l 1.61194,-4.12329 1.18034,-4.45315 c 1.36723,-5.15819 2.05153,-8.56128 2.5411,-12.63714 l 0.34908,-2.90618 0.008,-5.67026 0.008,-5.67025 -0.36426,-3.1337 c -1.37457,-11.82561 -5.3415,-23.53318 -11.5858,-34.19312 -4.25086,-7.25685 -9.11732,-13.54105 -15.30323,-19.7615 l -4.28822,-4.31216 -3.46356,-2.73916 c -18.11849,-14.329 -41.06306,-22.15795 -64.80155,-22.11102 -4.28198,0.008 -10.00302,0.43012 -11.8916,0.87644 l -0.98958,0.23387 6.70614,0.40634 c 10.17084,0.61628 16.78938,1.82187 25.86394,4.71121 30.11257,9.58783 51.5627,29.60925 64.17563,59.90116 3.09187,7.4256 5.73991,17.2571 6.88558,25.56438 l 0.56865,4.12328 0.007,8.08165 0.007,8.08164 -0.57975,4.41172 c -0.93808,7.13855 -2.6675,15.28482 -4.16895,19.63745 -0.76851,2.22789 -0.75852,2.17494 -0.41018,2.17494 0.14405,0 1.6253,-2.78322 3.29168,-6.18493 z m -30.34587,-3.56473 0.73312,-0.51351 v -2.39222 -2.39222 l -0.46819,-0.6403 -0.46818,-0.64031 -58.75452,-0.0852 -58.75451,-0.0852 -0.81236,0.81236 -0.81236,0.81236 v 2.15911 2.1591 l 0.65972,0.65973 0.65973,0.65972 h 58.64221 58.64222 z m -86.37871,-9.26797 0.77852,-0.54529 -0.217,-4.15525 c -0.11935,-2.28539 -0.36403,-6.30761 -0.54375,-8.93827 -0.26599,-3.89367 -1.72724,-27.86773 -2.05076,-33.64602 l -0.0831,-1.48439 2.25602,-0.16493 2.25602,-0.16493 0.63028,-0.77873 0.63028,-0.77874 v -2.43743 -2.43743 l -0.65973,-0.65972 -0.65972,-0.65973 h -13.91074 -13.91074 l -0.60323,0.54592 -0.60324,0.54592 v 2.60277 2.60278 l 0.80967,0.80966 0.80966,0.80966 h 1.97471 1.9747 l 0.16367,0.26482 c 0.16218,0.26242 -0.0375,4.00454 -1.61743,30.31975 -0.44899,7.47814 -0.81635,14.55766 -0.81635,15.73225 v 2.13563 l 0.73313,0.5135 0.73312,0.5135 h 10.57375 10.57376 z m 38.30973,-0.0624 0.75043,-0.60766 -0.0529,-1.78385 c -0.0637,-2.14794 -0.75432,-13.84231 -1.89485,-32.08452 -0.46345,-7.41271 -0.76337,-13.68423 -0.66648,-13.93671 l 0.17615,-0.45905 h 1.80621 1.8062 l 0.92552,-0.79609 0.92552,-0.7961 v -2.4679 -2.4679 l -0.62839,-0.69436 -0.62839,-0.69436 h -14.02454 -14.02454 l -0.60324,0.54592 -0.60323,0.54592 v 2.39587 c 0,1.31773 0.0922,2.63616 0.2049,2.92984 0.1127,0.29369 0.62486,0.75114 1.13814,1.01657 l 0.93324,0.48259 h 1.83063 1.83062 l -0.003,1.23699 c -0.002,0.68034 -0.14722,3.31512 -0.32318,5.85507 -0.17595,2.53994 -0.61796,9.81342 -0.98224,16.16328 -0.36428,6.34987 -0.83191,14.3156 -1.03918,17.70164 l -0.37686,6.15644 0.21771,0.86743 0.21771,0.86743 0.73233,0.29468 0.73232,0.29467 10.43661,0.0209 10.4366,0.0209 0.75043,-0.60766 z m 38.55045,0.0609 0.78061,-0.54677 -0.21773,-3.98885 c -0.11975,-2.19387 -0.36123,-6.06699 -0.53661,-8.60693 -0.86328,-12.50198 -1.03114,-15.14952 -1.48492,-23.42028 -0.26875,-4.89846 -0.5271,-9.64849 -0.5741,-10.55561 l -0.0855,-1.64932 2.09144,-0.16636 2.09144,-0.16637 0.79486,-0.92408 0.79486,-0.92408 v -2.29065 -2.29065 l -0.65972,-0.65972 -0.65973,-0.65973 h -13.91074 -13.91073 l -0.60324,0.54592 -0.60323,0.54592 v 2.72877 2.72877 l 0.86914,0.68367 0.86914,0.68366 h 1.9347 1.93469 l 0.032,0.41233 c 0.0803,1.03535 -0.68393,15.81149 -1.6926,32.72766 -0.35662,5.98084 -0.6484,11.87284 -0.6484,13.09335 v 2.21911 l 0.73312,0.5135 0.73312,0.5135 h 10.57376 10.57375 z m 14.02637,-60.22143 0.5135,-0.73312 v -1.88738 -1.88739 l -0.74219,-0.82541 -0.74219,-0.82541 -5.94222,-2.13924 c -7.98744,-2.87553 -19.06507,-7.16688 -39.34179,-15.24058 -9.30369,-3.70451 -17.22651,-6.73546 -17.60627,-6.73546 -0.37976,0 -7.01774,2.50883 -14.75105,5.57519 -26.81494,10.63244 -35.90416,14.1436 -42.74477,16.51225 -2.00331,0.69368 -4.25309,1.50805 -4.9995,1.80972 l -1.35713,0.54849 -0.37466,0.82228 -0.37465,0.82229 v 1.72533 1.72532 l 0.51349,0.73312 0.5135,0.73313 h 63.46122 63.46121 z"
           id="path2517" />
        <path
           style="fill:#ec4b00;stroke-width:0.329863"
           d="m 187.89746,427.16786 c -2.80512,-2.96253 -8.70292,-10.57646 -16.41681,-21.19369 -6.45758,-8.88809 -13.06712,-17.9107 -16.67333,-22.76055 -8.84136,-11.8904 -20.58987,-29.02342 -27.79442,-40.53303 -4.32301,-6.90622 -5.13062,-8.25657 -10.97317,-18.34751 -1.9433,-3.35635 -4.83103,-8.32904 -6.41719,-11.05041 C 95.657904,289.32347 87.2158,272.88561 81.577577,258.67556 79.119696,252.48094 78.11138,249.51234 76.148616,242.692 73.456898,233.33866 72.115223,225.41613 71.679649,216.30296 l -0.20496,-4.28822 0.36019,-4.94795 c 0.428799,-5.89045 0.809375,-8.98456 1.704076,-13.85424 1.627151,-8.85626 5.732167,-20.65298 9.928958,-28.53315 5.453268,-10.23942 10.750479,-17.4854 18.946247,-25.91632 10.26048,-10.55488 24.22369,-20.01737 37.22237,-25.22462 10.79513,-4.32452 19.21128,-6.49741 30.84219,-7.96292 l 3.46356,-0.43641 h 10.22575 10.22576 l 4.45315,0.60502 c 17.54665,2.38391 32.9005,7.87356 46.68079,16.69035 13.11467,8.39092 22.95664,17.60543 31.56579,29.55336 9.64739,13.38883 16.18005,29.55448 18.792,46.5025 l 0.76255,4.94794 -0.006,10.72055 -0.006,10.72054 -0.57372,4.12329 c -1.51553,10.89217 -5.06349,24.35411 -9.9108,37.60438 -2.73604,7.47904 -9.91306,23.93243 -12.94986,29.68767 -0.43078,0.81641 -2.35963,4.67581 -4.28634,8.57644 -6.6744,13.51241 -12.27146,24.05854 -19.86992,37.43944 -3.90605,6.87857 -5.4365,9.43494 -10.26917,17.15288 -1.13601,1.81424 -2.60639,4.16854 -3.26751,5.23179 -9.94101,15.98773 -19.57841,30.83816 -23.88874,36.8106 -11.63096,16.11591 -20.59534,27.72363 -21.41035,27.72363 -0.19832,0 -1.23903,-0.92774 -2.31268,-2.06165 z m 1.96121,-92.16459 c 12.6205,-8.64331 29.0051,-22.24008 41.26238,-34.24162 14.021,-13.72847 25.95008,-28.65068 34.4236,-43.06089 1.01348,-1.72353 2.37698,-3.92607 3.03,-4.89454 1.76971,-2.62453 7.17759,-13.51828 9.08845,-18.30794 2.95907,-7.41706 5.0305,-15.2743 5.97088,-22.64847 l 0.39962,-3.1337 0.01,-5.60767 0.01,-5.60767 -0.40107,-3.29863 c -0.22059,-1.81425 -0.76868,-5.14073 -1.21797,-7.39218 l -0.8169,-4.09355 -1.34699,-4.15303 c -3.39265,-10.4602 -8.06019,-19.36598 -15.04811,-28.71217 l -2.84796,-3.80907 -5.78698,-5.79543 -5.78698,-5.79542 -3.854,-2.87325 c -13.3333,-9.94032 -28.16669,-16.28049 -44.85194,-19.1709 -10.81648,-1.87374 -23.31113,-1.98614 -32.60529,-0.2933 -3.61896,0.65916 -11.45938,2.75308 -15.66849,4.18455 -5.86344,1.99408 -12.10561,4.77511 -16.65808,7.42157 -8.92581,5.18878 -15.62871,10.35867 -21.85607,16.85743 l -3.53028,3.68414 -2.77314,3.69414 c -9.200517,12.25617 -14.774644,26.31616 -16.908498,42.64942 l -0.556123,4.25677 -0.0093,7.25699 -0.0093,7.25698 0.411672,3.1337 c 0.683523,5.20304 1.632921,9.9112 3.015083,14.95209 l 1.312182,4.78567 2.018432,5.05742 c 6.976802,17.48123 17.002632,33.38888 32.318562,51.27881 7.45769,8.71103 19.75177,21.20782 28.83246,29.30786 4.46797,3.98545 13.24775,11.15824 18.14246,14.82177 6.77928,5.07408 6.8496,5.12205 7.52374,5.13386 l 0.59662,0.0105 4.16754,-2.85419 z m -69.40953,-79.93382 c -1.11899,-0.0949 -2.14569,-0.28385 -2.28155,-0.41992 l -0.24704,-0.2474 3.93087,-0.0207 c 10.05216,-0.0529 103.05138,-0.051 114.76483,0.002 l 13.19452,0.0601 -0.82466,0.3649 -0.82466,0.3649 -62.8389,0.0341 c -34.56139,0.0188 -63.75443,-0.0435 -64.87341,-0.1384 z m 7.58568,-13.86184 c -1.66391,-0.0907 -3.13592,-0.27626 -3.27115,-0.41233 l -0.24586,-0.24739 3.60101,-0.0389 c 3.44139,-0.0372 64.40396,-0.004 98.10674,0.0535 l 15.99836,0.0273 -0.80046,0.31988 -0.80046,0.31988 -54.78145,0.0715 c -30.1298,0.0394 -56.14283,-0.003 -57.80673,-0.0934 z m 11.93976,-9.48333 -5.59949,-0.0993 -0.26212,-0.26211 -0.26211,-0.26211 10.95447,-0.0403 c 6.02496,-0.0222 11.10207,0.0509 11.28245,0.1624 l 0.32797,0.2027 -0.63783,0.24977 -0.63783,0.24978 -4.78301,-0.0508 c -2.63066,-0.0279 -7.30278,-0.0954 -10.3825,-0.15005 z m 33.80277,-0.0237 c -0.63499,-0.0583 -1.28461,-0.23294 -1.44362,-0.38809 l -0.2891,-0.28207 11.25704,0.007 11.25705,0.007 v 0.26746 0.26746 l -1.56685,0.17898 c -1.59446,0.18212 -17.10913,0.13521 -19.21452,-0.0581 z m 37.78698,-0.0276 -0.64207,-0.25038 0.807,-0.21584 c 0.44384,-0.11873 5.18592,-0.21561 10.53795,-0.21531 l 9.73096,6.6e-4 0.43963,0.27869 0.43965,0.27869 -1.59417,0.20014 c -0.87678,0.11007 -5.52777,0.19422 -10.33552,0.18698 l -8.74137,-0.0132 -0.64206,-0.25038 z m -78.11637,-49.16957 c -0.68235,-0.13121 -1.33795,-0.33589 -1.4569,-0.45484 l -0.21626,-0.21626 h 1.89671 1.89671 l -0.13057,0.39171 c -0.17252,0.51758 -0.50689,0.56453 -1.98969,0.27939 z m 37.91285,-0.0137 -1.92174,-0.24567 -0.36531,-0.36531 c -0.5414,-0.54139 -0.0718,-0.81358 0.6953,-0.40302 l 0.66629,0.35659 h 1.671 1.671 v 0.49479 c 0,0.27214 -0.11133,0.47533 -0.2474,0.45154 -0.13607,-0.0238 -1.11218,-0.1538 -2.16914,-0.28892 z m -16.71551,-0.32755 v -0.32986 l 2.06164,0.0232 2.06165,0.0232 -0.65973,0.2835 c -0.36285,0.15592 -1.29059,0.29393 -2.06164,0.30668 l -1.40192,0.0232 z m 38.59397,0.0113 v -0.34123 h 1.86922 c 2.251,0 2.20248,0.16289 -0.13744,0.46147 l -1.73178,0.22098 z m 38.42903,-0.0113 -0.20386,-0.32986 1.91618,0.0232 1.91618,0.0232 -0.65973,0.2835 c -0.36285,0.15592 -1.13339,0.29393 -1.71231,0.30668 l -1.05259,0.0232 z m -20.85755,-0.22859 c 0.32094,-0.0836 0.76626,-0.0781 0.98959,0.0122 l 0.40605,0.16428 -0.98959,-0.0122 -0.98959,-0.0122 0.58354,-0.15207 z m -85.08466,-9.98 -5.00414,-0.18209 -0.24618,-0.2474 -0.24618,-0.2474 63.14127,0.01 63.14128,0.01 -0.56993,0.33212 -0.56993,0.33212 -57.32103,0.0873 c -31.52656,0.048 -59.57288,0.005 -62.32516,-0.0948 z"
           id="path2515" />
      </g>
    </g>
  </g>
</svg>
