<?xml version="1.0" encoding="UTF-8" standalone="no"?>
<svg
   xmlns:dc="http://purl.org/dc/elements/1.1/"
   xmlns:cc="http://creativecommons.org/ns#"
   xmlns:rdf="http://www.w3.org/1999/02/22-rdf-syntax-ns#"
   xmlns:svg="http://www.w3.org/2000/svg"
   xmlns="http://www.w3.org/2000/svg"
   xmlns:sodipodi="http://sodipodi.sourceforge.net/DTD/sodipodi-0.dtd"
   xmlns:inkscape="http://www.inkscape.org/namespaces/inkscape"
   version="1.1"
   id="svg1691"
   width="361"
   height="530"
   viewBox="0 0 361 530"
   sodipodi:docname="parking_pin_vector_03.svg"
   inkscape:version="1.0.2-2 (e86c870879, 2021-01-15)">
  <metadata
     id="metadata1697">
    <rdf:RDF>
      <cc:Work
         rdf:about="">
        <dc:format>image/svg+xml</dc:format>
        <dc:type
           rdf:resource="http://purl.org/dc/dcmitype/StillImage" />
        <dc:title></dc:title>
      </cc:Work>
    </rdf:RDF>
  </metadata>
  <defs
     id="defs1695" />
  <sodipodi:namedview
     pagecolor="#ffffff"
     bordercolor="#666666"
     borderopacity="1"
     objecttolerance="10"
     gridtolerance="10"
     guidetolerance="10"
     inkscape:pageopacity="0"
     inkscape:pageshadow="2"
     inkscape:window-width="3440"
     inkscape:window-height="1334"
     id="namedview1693"
     showgrid="false"
     inkscape:zoom="1.4920728"
     inkscape:cx="526.67086"
     inkscape:cy="317.8042"
     inkscape:window-x="-11"
     inkscape:window-y="-11"
     inkscape:window-maximized="1"
     inkscape:current-layer="g1699" />
  <g
     inkscape:groupmode="layer"
     inkscape:label="Image"
     id="g1699"
     style="display:inline">
    <g
       id="g2497"
       transform="translate(-178.27549,-31.499805)">
      <ellipse
         style="fill:#ffffff;fill-opacity:1;stroke-width:4.49938"
         id="path2489"
         cx="358.37122"
         cy="220.49864"
         rx="86.792015"
         ry="85.116493" />
      <g
         id="g2479"
         transform="translate(180.95633,25.467927)">
        <path
           style="fill:#92b1d5;stroke-width:0.333565"
           d="M 181.32469,428.67534 C 177.785,424.4955 164.31062,406.95426 158.07188,398.40428 134.97892,366.75627 113.15832,333.35551 96.619207,304.33884 91.010352,294.49851 88.264168,289.38121 83.909706,280.6557 70.865658,254.51789 64.793644,235.89157 63.318228,217.48991 l -0.397573,-4.95862 0.176963,-7.21651 0.176959,-7.21652 0.679847,-4.66991 c 0.921531,-6.33009 1.840026,-10.44063 3.614941,-16.17793 4.170725,-13.4816 10.937002,-26.30663 19.62217,-37.19254 3.32466,-4.16709 11.375004,-12.44852 15.326345,-15.76628 11.05605,-9.28326 23.67011,-16.46292 37.04153,-21.08326 8.71748,-3.01222 19.69042,-5.285931 29.18697,-6.047864 l 4.8367,-0.388057 6.83809,0.204185 6.83809,0.204186 4.00279,0.526229 c 23.28479,3.061161 44.10422,12.316671 61.54281,27.359531 4.19713,3.62052 10.88931,10.51709 14.22336,14.65777 8.77939,10.90342 15.65737,23.79719 19.92873,37.35932 1.39983,4.44462 3.13879,11.68184 3.84717,16.01114 0.18012,1.10077 0.50243,3.76742 0.71625,5.92589 l 0.38877,3.92449 -0.16544,8.91777 -0.16545,8.91778 -0.56077,4.00278 c -2.11338,15.08519 -7.40654,32.55885 -15.98406,52.76626 -8.56575,20.17966 -18.48587,39.92496 -33.06635,65.81624 -4.93949,8.7713 -15.8319,26.64234 -23.78704,39.02715 -9.89237,15.40072 -22.70677,33.75542 -31.03129,44.44759 l -2.79178,3.58583 h -0.77463 -0.77462 z m -9.90978,-165.29833 v -8.93955 l 0.40027,-0.40028 0.40028,-0.40028 6.02086,-0.003 6.02085,-0.003 2.14637,-0.34825 c 1.18051,-0.19153 3.05681,-0.65459 4.16957,-1.02902 l 2.0232,-0.68077 2.21089,-1.46877 2.21088,-1.46877 0.82727,-1.08552 c 0.455,-0.59703 1.2354,-1.89141 1.73423,-2.8764 l 0.90696,-1.79089 0.46883,-2.2119 0.46884,-2.21189 0.001,-2.66852 0.001,-2.66853 -0.49304,-2.09117 c -0.27117,-1.15015 -0.88462,-2.86394 -1.36323,-3.80843 l -0.8702,-1.71725 -1.65419,-1.74906 -1.6542,-1.74907 -2.39808,-1.17469 -2.39808,-1.17469 -2.50174,-0.56876 -2.50174,-0.56877 -13.47154,-0.15029 -13.47153,-0.1503 -0.26863,0.43465 -0.26863,0.43465 -0.004,25.36269 c -0.002,13.94948 0.0831,25.92558 0.19001,26.61356 l 0.19442,1.25087 h 6.46189 6.4619 v -8.93956 z m 0.41695,-19.78229 -0.41695,-0.43177 v -7.40282 -7.40282 l 0.52763,-0.20247 c 0.29019,-0.11136 2.44285,-0.20247 4.78368,-0.20247 h 4.25606 l 1.56909,0.47222 1.5691,0.47223 1.18875,0.9067 1.18874,0.9067 0.6235,1.37299 0.6235,1.37298 0.007,1.9627 0.007,1.96269 -0.38075,1.2708 c -0.2094,0.69894 -0.80964,1.79114 -1.33385,2.4271 l -0.95312,1.1563 -1.58081,0.76525 -1.58082,0.76526 -4.84072,0.1301 -4.84072,0.1301 -0.41696,-0.43177 z m -30.93819,-27.5715 c 1.75097,-0.90271 3.30283,-2.55652 4.14337,-4.41556 l 0.67868,-1.50104 0.007,-1.85858 0.007,-1.85858 -0.50966,-1.49576 -0.50965,-1.49575 -0.99087,-1.20209 -0.99086,-1.2021 -1.73385,-0.86401 -1.73387,-0.86401 h -2.37075 -2.37075 l -1.7255,0.85985 -1.72549,0.85985 -0.8945,1.05815 c -0.49197,0.58199 -1.18392,1.7095 -1.53765,2.50558 l -0.64315,1.44743 0.0163,2.11916 0.0163,2.11916 0.48045,1.14988 c 0.9414,2.25308 3.39775,4.4538 5.88017,5.26821 l 0.83607,0.2743 2.16817,-0.1081 2.16818,-0.10811 1.33426,-0.68788 z m 72.80445,-0.0386 c 1.74592,-0.8907 3.35939,-2.57424 4.19482,-4.37696 l 0.69562,-1.50104 -0.0138,-2.0014 -0.0138,-2.00139 -0.74089,-1.66783 -0.7409,-1.66782 -1.02755,-1.06192 -1.02755,-1.06191 -1.62733,-0.70006 -1.62733,-0.70006 -1.74777,-0.0372 -1.74778,-0.0372 -1.3505,0.4142 c -0.74278,0.22781 -2.03664,0.91212 -2.87525,1.5207 l -1.52474,1.1065 -0.77837,1.60791 -0.77837,1.6079 -0.13332,1.8431 -0.13332,1.8431 0.37697,1.39996 0.37697,1.39996 1.0799,1.41584 1.07989,1.41584 1.11501,0.65119 c 0.61325,0.35816 1.66178,0.85608 2.33007,1.10649 l 1.21506,0.45529 2.07094,-0.15949 2.07094,-0.1595 1.28236,-0.65421 z m -89.36216,-11.91119 c 0.31571,-0.93327 1.07105,-2.47139 1.67852,-3.41806 l 1.1045,-1.72121 1.27148,-1.00702 c 0.69931,-0.55387 2.14449,-1.40672 3.21152,-1.89522 l 1.94005,-0.88818 2.53669,-0.14685 2.53669,-0.14684 1.87614,0.54541 1.87615,0.54541 2.06696,1.41449 2.06697,1.4145 1.26182,1.83237 1.26182,1.83238 0.39552,1.41132 c 0.21753,0.77622 0.58506,1.56862 0.81671,1.76087 l 0.4212,0.34957 4.6241,-0.0931 4.6241,-0.093 0.086,-19.76375 0.086,-19.76375 h -10.80896 -10.80897 l -0.96417,1.09813 c -0.53029,0.60397 -3.02131,3.96082 -5.53558,7.45967 l -4.57142,6.36154 -2.92149,1.08776 c -1.60682,0.59827 -4.57265,1.67938 -6.59072,2.40247 l -3.66922,1.31471 -0.75052,0.70331 -0.75052,0.70332 v 8.95887 8.95887 l 0.75052,0.30616 0.75052,0.30616 4.77675,-0.0667 4.77674,-0.0667 z m 10.60524,-22.09596 c -0.30363,-0.33551 -0.55205,-0.87876 -0.55205,-1.20723 v -0.59723 l 2.91269,-4.33427 2.91268,-4.33428 0.77825,-0.29589 0.77825,-0.29589 h 4.81498 4.81498 l 0.66713,0.66713 0.66713,0.66713 v 4.50314 4.50313 l -0.66713,0.66713 -0.66713,0.66713 h -7.95387 -7.95387 z m 62.02301,22.43055 c 0.85653,-2.95875 2.43432,-5.23654 4.8614,-7.01818 l 1.64264,-1.20581 2.01558,-0.62732 2.01558,-0.62732 h 2.24581 2.24582 l 1.64386,0.55275 c 0.90412,0.30401 2.41977,1.04491 3.36812,1.64644 l 1.72427,1.0937 1.39455,1.84706 1.39454,1.84707 0.60159,1.92693 0.60158,1.92693 2.45649,-0.036 2.45649,-0.036 4.33005,-1.08382 c 2.38153,-0.59611 5.11204,-1.37641 6.0678,-1.734 l 1.73774,-0.65017 0.84776,-1.00751 0.84776,-1.0075 v -22.09596 -22.09597 l -0.49708,-1.67382 -0.49707,-1.67383 -1.22559,-1.26196 c -0.67408,-0.69407 -1.76381,-1.50666 -2.42163,-1.80576 l -1.19603,-0.5438 -20.1807,-0.16678 -20.18071,-0.16679 -6.67131,-3.40117 -6.6713,-3.40118 -1.16748,-0.19848 -1.16748,-0.19849 -9.17305,0.33081 c -18.81474,0.67852 -35.90561,1.39993 -37.35932,1.57693 l -1.50105,0.18276 -2.0991,2.22085 c -1.1545,1.22146 -3.21213,3.68241 -4.57249,5.46877 l -2.47341,3.24793 -0.35716,1.3264 -0.35716,1.3264 0.46388,1.09628 c 0.60701,1.43452 1.36321,2.06115 3.39127,2.81018 l 1.66782,0.61598 18.51288,0.16932 18.51288,0.16933 0.0859,21.48377 0.0859,21.48376 0.37463,0.4514 0.37463,0.4514 15.70281,-0.0866 15.70282,-0.0866 z m -16.65812,-10.08863 -0.55205,-0.61001 v -15.549 -15.549 l 0.74135,-0.51927 0.74135,-0.51926 h 7.77973 7.77973 l 0.83161,0.83161 0.83161,0.83161 -0.0962,15.20925 -0.0962,15.20924 -0.78748,0.63742 -0.78747,0.63741 h -7.91692 -7.91691 z m 30.25505,-17.39972 c -0.39316,-0.15866 -0.95605,-0.63286 -1.25087,-1.05378 l -0.53604,-0.7653 v -5.77833 -5.77834 l 0.76518,-0.76518 0.76518,-0.76518 3.48778,-0.1784 c 1.91827,-0.0981 6.79007,-0.15058 10.82621,-0.11659 l 7.33844,0.0618 0.76649,0.41687 0.76649,0.41687 0.3176,0.83535 0.3176,0.83534 v 5.50778 5.50777 l -0.97504,0.97504 -0.97504,0.97503 -10.44957,-0.0211 -10.44958,-0.0211 -0.71483,-0.28847 z m -71.50208,-19.58314 c -0.45865,-0.066 -1.18153,-0.19591 -1.60641,-0.28868 l -0.77251,-0.16866 -0.43295,-1.07221 -0.43294,-1.07222 0.0616,-3.13412 0.0616,-3.13411 0.76381,-0.6185 0.76381,-0.61849 h 9.41796 9.41796 l 0.50134,0.58374 c 0.27574,0.32106 0.60863,0.88324 0.73976,1.24931 l 0.23842,0.66556 -0.23221,3.27529 -0.23221,3.27529 -0.85804,0.56228 -0.85804,0.56227 -7.85356,0.0267 c -4.31945,0.0146 -8.22881,-0.0274 -8.68747,-0.0934 z"
           id="path2487" />
        <path
           style="fill:#5eace9;stroke-width:0.333565"
           d="M 179.92822,426.35303 C 142.82475,379.61421 103.95865,320.22842 83.71959,279.35022 71.806486,255.2885 66.028867,238.07129 63.95335,220.44714 l -0.432108,-3.66922 0.006,-8.6727 0.006,-8.6727 0.596362,-4.33635 c 1.632072,-11.8673 4.444001,-21.58968 9.165089,-31.68871 8.411668,-17.99368 20.582945,-32.76934 36.363317,-44.14427 14.51075,-10.45975 30.33881,-17.15165 47.74707,-20.186815 2.66018,-0.463809 6.33774,-1.029353 8.17235,-1.256764 l 3.33566,-0.413475 8.50591,0.01051 8.50592,0.01051 4.33635,0.561414 c 9.17701,1.18812 18.27641,3.35765 26.6917,6.36401 l 4.32988,1.54684 6.67131,3.30508 6.67131,3.30508 3.59089,2.2664 c 15.86626,10.01402 29.09169,23.63418 38.22685,39.3678 7.01279,12.07822 11.85767,25.90047 14.12053,40.28529 l 0.73462,4.66991 0.005,10.17375 0.005,10.17375 -0.5811,4.33635 c -2.96028,22.09055 -11.86615,47.03488 -29.41595,82.39065 -10.28877,20.72775 -19.31802,36.96429 -33.01861,59.37464 -13.73637,22.46887 -29.88364,46.24458 -41.45702,61.04247 l -2.60879,3.33566 -0.65523,0.096 -0.65523,0.096 -2.98903,-3.76525 z m -8.25749,-162.6818 0.089,-8.81211 0.33887,-0.40831 0.33886,-0.40831 7.41088,-0.16414 7.41088,-0.16414 2.00139,-0.56787 c 1.10077,-0.31233 2.90202,-1.0401 4.00279,-1.61725 l 2.00139,-1.04937 1.86121,-1.84046 1.86122,-1.84046 1.02953,-2.16818 1.02954,-2.16817 0.36151,-1.97926 c 0.46201,-2.52947 0.46252,-6.5165 0.001,-9.05053 l -0.36036,-1.97926 -1.02937,-2.10444 -1.02937,-2.10445 -1.75794,-1.78625 -1.75794,-1.78625 -2.43955,-1.1938 -2.43955,-1.1938 -2.33496,-0.54102 -2.33496,-0.54101 -13.60408,-0.15997 -13.60408,-0.15996 -0.48906,0.40588 -0.48905,0.40588 v 26.45033 c 0,14.54767 0.0923,26.6908 0.20507,26.98473 l 0.20508,0.53442 6.7164,-0.0902 6.71657,-0.0902 z m 0.48803,-20.29747 -0.42363,-0.29179 0.0901,-7.31463 0.0901,-7.31463 4.8367,0.002 4.8367,0.002 1.25934,0.44339 c 0.69264,0.24387 1.72721,0.83707 2.29904,1.31824 l 1.03969,0.87484 0.61233,1.34806 0.61234,1.34806 0.007,1.92871 0.007,1.92872 -0.51804,1.24016 c -0.66305,1.58728 -1.96338,2.9515 -3.65153,3.83094 l -1.33426,0.69509 -4.66991,0.12608 -4.66992,0.12608 -0.42363,-0.29178 z m -32.05635,-26.60514 1.49576,-0.50966 1.23252,-1.01594 1.23252,-1.01595 0.88594,-1.51175 0.88594,-1.51174 0.1585,-2.46974 0.1585,-2.46973 -0.59639,-1.56162 -0.59639,-1.56162 -1.28995,-1.39943 -1.28995,-1.39944 -1.73554,-0.74661 -1.73554,-0.74661 h -2.03384 -2.03383 l -1.64341,0.72529 -1.64341,0.72529 -1.23025,1.19858 -1.23026,1.19859 -0.74232,1.70365 -0.74233,1.70365 -0.008,2.03696 -0.008,2.03696 0.91679,1.87384 0.91679,1.87385 1.35908,1.16332 1.35908,1.16332 1.3725,0.48676 1.37251,0.48677 1.85858,0.0263 1.85858,0.0263 1.49575,-0.50965 z m 72.74307,-0.009 1.52158,-0.51845 1.38649,-1.18678 1.38649,-1.18679 0.89524,-1.71381 0.89524,-1.7138 -0.0174,-2.33496 -0.0174,-2.33496 -0.77092,-1.60534 c -0.42401,-0.88293 -1.2369,-2.07131 -1.80642,-2.64083 l -1.0355,-1.0355 -1.79199,-0.8204 -1.79198,-0.8204 -2.04605,-0.0152 -2.04604,-0.0152 -1.518,0.67635 c -0.83489,0.37199 -2.08209,1.17164 -2.77156,1.777 l -1.25358,1.10065 -0.69745,1.36585 -0.69746,1.36584 -0.16171,2.25266 -0.1617,2.25266 0.59721,1.56378 0.59722,1.56378 1.34838,1.46282 c 2.01324,2.18411 3.8195,3.0012 6.74401,3.05077 l 1.6918,0.0287 1.52157,-0.51845 z m -88.88184,-10.90615 c 0.18165,-0.22933 0.57586,-1.16748 0.87603,-2.08479 l 0.54575,-1.66782 1.25236,-1.65297 c 0.6888,-0.90913 1.89904,-2.1462 2.68943,-2.74904 l 1.43707,-1.09609 2.35405,-0.71502 2.35406,-0.71502 2.42033,0.18304 2.42034,0.18305 1.85547,0.87778 1.85546,0.87778 1.66788,1.49956 1.66788,1.49957 1.01992,2.04104 c 0.56096,1.12258 1.01992,2.28726 1.01992,2.58819 0,0.30093 0.18013,0.72726 0.40028,0.94742 l 0.40028,0.40027 h 4.94502 4.94502 l 0.27886,-0.75052 0.27885,-0.75052 0.0404,-10.17374 c 0.0222,-5.59556 -0.0539,-14.33915 -0.16919,-19.43019 l -0.20961,-9.25644 h -10.81394 -10.81393 l -0.59362,0.3177 c -0.3265,0.17473 -2.81277,3.39629 -5.52505,7.15901 -2.71229,3.76272 -5.1747,7.04809 -5.47202,7.30082 -0.45387,0.3858 -3.96194,1.74827 -12.29932,4.77683 l -1.41822,0.51517 -0.49979,0.71355 -0.49979,0.71355 v 8.91313 8.91313 l 0.74136,0.51926 0.74135,0.51926 h 4.88841 4.88842 z m 11.34281,-23.96004 -0.58374,-0.33999 v -0.6063 -0.6063 l 2.52933,-3.79687 c 1.39114,-2.08828 2.81586,-4.09164 3.16605,-4.45191 l 0.63671,-0.65504 5.11977,-0.0121 5.11976,-0.0121 0.55367,0.4578 0.55368,0.4578 v 4.4106 4.41058 l -0.61,0.55205 -0.61001,0.55202 -7.64574,-0.0101 -7.64574,-0.0101 z m 61.67348,23.3763 c 0.22346,-0.45865 0.66151,-1.56556 0.97344,-2.45979 l 0.56716,-1.62587 2.04137,-2.0753 2.04137,-2.07529 2.00139,-0.75784 2.00139,-0.75784 2.19318,-0.16816 2.19318,-0.16816 1.97639,0.56811 1.97639,0.56812 1.56683,0.99704 c 2.81117,1.78889 4.51511,4.07594 5.49494,7.37538 l 0.49589,1.66984 2.89247,-0.17895 2.89248,-0.17896 4.61848,-1.1986 c 2.54016,-0.65923 5.27556,-1.48927 6.07867,-1.84452 l 1.4602,-0.64592 0.67478,-1.10678 0.67478,-1.10678 -6.7e-4,-22.18209 -6.7e-4,-22.1821 -0.34506,-1.24245 -0.34505,-1.24245 -1.08632,-1.42607 -1.08631,-1.42608 -1.48547,-0.83391 -1.48546,-0.83392 -20.34749,-0.16678 -20.34749,-0.16678 -6.55818,-3.39835 -6.55817,-3.39835 -1.15065,-0.21587 -1.15064,-0.21586 -9.4698,0.34822 c -5.20828,0.19152 -15.62396,0.58578 -23.14586,0.87612 l -13.67618,0.52789 -1.23131,0.32728 -1.23131,0.32728 -1.72013,1.8023 c -0.94607,0.99127 -2.88219,3.29516 -4.30249,5.11975 l -2.58236,3.31743 -0.55377,1.38401 c -0.6912,1.72747 -0.69082,2.14835 0.003,3.61104 l 0.55705,1.17388 1.02739,0.63056 c 0.56507,0.34681 1.55276,0.81047 2.19487,1.03035 l 1.16748,0.39979 18.51288,0.18114 18.51288,0.18113 0.0859,21.48377 0.0859,21.48376 0.3746,0.45137 0.3746,0.45137 15.87152,-0.0866 15.87151,-0.0866 0.40629,-0.83391 z m -16.30858,-11.03438 -0.58374,-0.34 v -15.4753 -15.4753 l 0.74135,-0.51926 0.74135,-0.51926 h 7.35678 7.35678 l 0.74135,0.51926 0.74135,0.51926 v 15.30127 15.30127 l -0.52417,0.52417 -0.52418,0.52418 -7.73157,-0.0102 -7.73157,-0.0101 z m 29.93749,-17.6965 c -0.36692,-0.20474 -0.85476,-0.60744 -1.08409,-0.89488 l -0.41696,-0.52264 v -5.77364 -5.77364 l 0.66713,-0.66713 0.66714,-0.66713 h 10.85603 10.85604 l 0.84018,0.84018 0.84018,0.84018 -0.10482,5.82007 -0.10482,5.82008 -0.59522,0.59479 -0.59523,0.5948 -10.57921,0.0806 -10.57922,0.0806 z m -73.66625,-20.24611 -0.55205,-0.61 v -3.50787 -3.50786 l 0.61001,-0.55205 0.61,-0.55205 h 9.17847 9.17848 l 0.55205,0.61001 0.55204,0.61 v 3.50787 3.50786 l -0.61,0.55205 -0.61,0.55205 h -9.17848 -9.17847 z"
           id="path2485" />
        <path
           style="fill:#0071d2;stroke-width:0.333565"
           d="M 182.84655,429.51429 C 181.23822,428.0861 166.27455,408.6787 157.57389,396.73646 123.99422,350.64609 93.696544,301.46667 79.203535,269.52512 70.772744,250.94426 66.476011,237.36127 64.439241,222.8517 l -0.571658,-4.07238 -0.01241,-10.34053 -0.01241,-10.34053 0.768091,-5.00348 c 1.333508,-8.68669 2.751924,-14.14861 5.794731,-22.31382 5.240943,-14.06379 13.523058,-27.12711 24.321106,-38.36149 l 4.135647,-4.30276 4.036092,-3.36925 c 17.98403,-15.01269 37.94341,-23.60099 61.84517,-26.611272 l 3.50244,-0.44111 9.50661,0.02412 9.50661,0.02412 4.00279,0.574753 c 15.03783,2.159249 26.48139,5.717199 38.86036,12.082199 10.72641,5.51528 19.80187,12.20525 28.75431,21.19623 l 4.57082,4.59049 3.2848,4.11766 c 8.97597,11.25182 15.71687,24.05031 19.89838,37.77967 1.81843,5.97056 3.26577,12.69064 4.05905,18.84645 l 0.5803,4.50313 -10e-4,7.83879 -10e-4,7.83879 -0.57248,5.00348 c -1.51361,13.22891 -5.7511,29.06738 -12.06349,45.08978 -8.97516,22.78116 -20.4738,46.23699 -37.32802,76.14466 -7.73253,13.72128 -23.11688,38.41466 -33.46876,53.72061 -8.63188,12.76281 -22.08923,31.17692 -23.85657,32.64368 l -0.46914,0.38933 -0.66303,-0.58874 z m -11.16479,-156.93087 0.40028,-0.40028 v -8.90336 -8.90336 l 7.42183,-0.16432 7.42183,-0.16432 2.00139,-0.56562 c 1.10076,-0.31109 2.96219,-1.03572 4.13651,-1.61027 l 2.13511,-1.04465 1.73862,-1.589 1.73862,-1.589 1.23005,-2.34079 1.23006,-2.34079 0.47763,-2.25399 0.47765,-2.25399 0.006,-2.69856 0.006,-2.69856 -0.6538,-2.55635 -0.65381,-2.55635 -0.9202,-1.58318 c -0.5061,-0.87075 -1.67737,-2.34546 -2.60281,-3.27712 l -1.68261,-1.69393 -2.49738,-1.21219 -2.49739,-1.21219 -2.50174,-0.55811 -2.50174,-0.55812 -13.11766,-0.15142 c -7.21472,-0.0833 -13.48158,-0.0601 -13.92636,0.0515 l -0.80871,0.20297 v 27.29042 27.29041 l 0.22237,0.22238 0.22238,0.22237 h 6.549 6.549 z m 0.65045,-29.47382 -0.25017,-0.25798 v -7.11606 -7.11606 l 4.58652,0.002 4.58652,0.002 1.25999,0.3499 1.25999,0.3499 1.20805,1.06068 1.20805,1.06068 0.45066,1.07859 0.45066,1.07858 v 2.02282 2.02282 l -0.51627,1.23561 c -0.66595,1.59385 -1.65731,2.64019 -3.31973,3.50384 l -1.33426,0.69318 -4.66992,0.14388 -4.66992,0.14388 -0.25017,-0.25798 z m 94.45362,-1.7576 c 1.62186,-3.2129 4.2864,-9.82062 5.86283,-14.53912 1.64247,-4.91614 3.1376,-11.2328 4.07276,-17.20661 l 0.60049,-3.836 -0.0282,-8.83949 -0.0282,-8.83948 -0.8732,-4.8367 c -3.15455,-17.47324 -10.40884,-32.2045 -22.37064,-45.42796 -5.47298,-6.05023 -10.89273,-10.60759 -19.04412,-16.0138 l -5.00487,-3.31936 -5.01202,-2.46063 c -11.67584,-5.73221 -22.93804,-8.98096 -35.8934,-10.35399 l -5.14368,-0.54513 -7.33844,0.17992 -7.33844,0.17993 -1.16748,0.29285 -1.16748,0.29284 5.00348,0.24963 c 8.30487,0.41435 13.20559,1.20029 21.34819,3.42367 10.33326,2.82155 21.58853,8.32744 31.52193,15.41998 4.58428,3.27322 8.63306,6.68542 13.29982,11.20873 l 3.7932,3.6766 4.02057,4.99767 c 7.64106,9.49803 12.60817,18.08934 17.07079,29.52635 2.95597,7.57571 5.14132,15.95956 6.39065,24.51706 l 0.58438,4.00278 0.0193,8.50592 0.0194,8.50592 -0.43497,3.50243 c -0.61113,4.92089 -2.18589,12.58141 -3.38552,16.46913 -0.55891,1.8113 -1.01621,3.35873 -1.01621,3.43873 0,0.53074 0.82988,-0.56892 1.63905,-2.17187 z M 140.78167,216.69505 c 0.81409,-0.36011 2.00187,-1.11281 2.63952,-1.67267 l 1.15936,-1.01793 0.82508,-1.61535 0.82509,-1.61535 -0.007,-2.83531 -0.007,-2.8353 -0.71494,-1.33427 c -0.39322,-0.73384 -1.29055,-1.88894 -1.99408,-2.56688 l -1.27913,-1.23262 -1.50105,-0.67805 -1.50104,-0.67806 -2.33496,-0.004 -2.33496,-0.004 -1.66782,0.78011 -1.66783,0.78011 -1.36569,1.48777 -1.36569,1.48775 -0.59638,1.56162 -0.59639,1.56162 0.1585,2.46973 0.1585,2.46974 0.88186,1.50478 0.88185,1.50478 1.3899,1.10082 1.3899,1.10081 1.7,0.60796 1.69999,0.60795 1.87244,-0.14044 1.87244,-0.14044 1.48016,-0.65474 z m 73.17897,-0.24398 1.77283,-0.86737 1.02146,-1.16338 c 0.56181,-0.63986 1.34467,-1.79692 1.7397,-2.57124 l 0.71824,-1.40785 0.0343,-1.83513 0.0343,-1.83514 -0.43733,-1.50104 -0.43733,-1.50105 -1.12855,-1.55439 -1.12855,-1.5544 -2.17841,-1.07243 -2.17841,-1.07243 h -2.17129 -2.17127 l -1.80364,0.88244 -1.80363,0.88243 -1.35368,1.46857 -1.35367,1.46856 -0.55807,1.91968 -0.55806,1.91967 0.17072,1.88274 0.17072,1.88273 0.67587,1.31012 c 1.1683,2.26464 3.97769,4.54978 6.31408,5.13582 l 1.25641,0.31514 1.79018,-0.13234 1.79019,-0.13235 z m -89.76906,-10.37106 c 0.2883,-0.2883 0.52564,-0.77614 0.52743,-1.08409 0.002,-0.30795 0.36928,-1.34608 0.81663,-2.30694 l 0.81337,-1.74703 1.52356,-1.62881 1.52357,-1.62882 2.07955,-0.96051 2.07955,-0.96051 h 3.50243 3.50244 l 1.66783,0.88256 c 0.9173,0.48542 2.35423,1.48797 3.19317,2.22791 l 1.52535,1.34535 1.01728,1.94166 c 0.5595,1.06791 1.12335,2.39047 1.25301,2.93901 0.12965,0.54855 0.41146,1.10914 0.62624,1.24577 l 0.39051,0.2484 h 4.8367 4.8367 l 0.41959,-0.26637 0.41958,-0.26638 -0.086,-20.1594 -0.086,-20.15939 -11.0486,-0.0878 -11.04861,-0.0878 -0.72601,0.58818 c -0.39931,0.3235 -3.0077,3.71647 -5.79644,7.53993 l -5.07044,6.95174 -3.50244,1.33484 c -1.92634,0.73416 -4.85338,1.7856 -6.50452,2.33653 l -3.00209,1.00169 -0.91731,0.97413 -0.9173,0.97412 v 8.94931 8.9493 l 0.58374,0.50852 c 0.93827,0.81738 1.34214,0.87512 6.31391,0.9028 l 4.72948,0.0263 0.52418,-0.52417 z m 11.08708,-24.38205 c -0.12231,-0.1223 -0.22238,-0.50199 -0.22238,-0.84374 v -0.62137 l 2.66653,-3.98015 2.66654,-3.98016 0.64719,-0.34636 0.64719,-0.34637 h 4.79191 4.79192 l 0.40028,0.40028 0.40027,0.40028 v 4.36971 4.3697 l -0.40027,0.40028 -0.40028,0.40028 h -7.88326 -7.88327 z m 61.42038,24.62102 c 0.23842,-0.15124 0.65151,-0.99936 0.91796,-1.88472 1.02779,-3.41507 3.45737,-6.25461 6.74871,-7.88748 l 1.57321,-0.78048 3.66922,-0.001 3.66922,-0.001 1.89398,0.93016 1.89397,0.93017 1.83635,1.98347 1.83636,1.98348 0.7728,2.42341 0.77281,2.4234 1.61828,0.10305 1.61828,0.10305 2.88485,-0.56811 c 1.58667,-0.31247 4.66574,-1.07384 6.84238,-1.69193 l 3.95752,-1.12381 0.9676,-0.68899 c 0.53218,-0.37894 1.19049,-1.12001 1.46291,-1.64682 l 0.49532,-0.95783 v -21.97134 -21.97134 l -0.49881,-1.67965 -0.4988,-1.67965 -1.33035,-1.51137 -1.33036,-1.51136 -1.4231,-0.62214 -1.42311,-0.62246 -20.1807,-0.16678 -20.18071,-0.16679 -6.17767,-3.21876 c -3.39772,-1.77031 -6.80312,-3.38717 -7.56755,-3.59301 l -1.38988,-0.37426 -9.44428,0.32449 c -5.19436,0.17846 -15.67362,0.56503 -23.28725,0.85903 l -13.84296,0.53456 -1.31772,0.34904 -1.31773,0.34905 -1.4524,1.55102 c -2.53674,2.70897 -6.72086,8.01931 -7.47001,9.48067 l -0.72292,1.41018 -0.003,1.37147 -0.003,1.37148 0.71755,1.00771 0.71755,1.0077 1.44095,0.67733 c 0.79252,0.37253 2.33342,0.84282 3.42422,1.0451 l 1.98327,0.36777 14.17653,-0.22151 14.17653,-0.2215 2.9187,0.24621 2.91869,0.24622 0.005,21.06806 c 0.003,11.58744 0.093,21.39777 0.20102,21.80073 l 0.19646,0.73265 0.5495,0.14596 c 0.30223,0.0803 7.52937,0.16107 16.0603,0.17954 l 15.51079,0.0336 0.43351,-0.27498 z m -15.86091,-12.27763 -0.41696,-0.16825 v -15.41628 -15.41628 l 0.40028,-0.40028 0.40028,-0.40028 h 7.74825 7.74824 l 0.52418,0.52418 0.52417,0.52417 v 14.74561 14.74562 l -0.51926,0.74135 -0.51926,0.74135 -7.73648,-0.0263 c -4.25507,-0.0145 -7.92412,-0.10204 -8.15344,-0.19458 z m 29.77071,-17.85665 c -0.36692,-0.20807 -0.77741,-0.54124 -0.9122,-0.74038 l -0.24506,-0.36207 -0.005,-5.73018 -0.005,-5.73017 0.50433,-0.50434 0.50433,-0.50433 1.41367,-0.20921 c 0.77752,-0.11507 5.66759,-0.16152 10.86681,-0.10324 l 9.45315,0.10598 0.63721,0.78748 0.63721,0.78748 -0.005,5.55026 -0.005,5.55027 -0.24506,0.36702 c -0.13479,0.20186 -0.57294,0.5396 -0.97366,0.75052 l -0.7286,0.3835 -10.11228,-0.0101 -10.11228,-0.0101 -0.66713,-0.3783 z m -72.10867,-19.53077 -1.05925,-0.12312 -0.42214,-0.50865 -0.42214,-0.50864 -0.0841,-3.30324 -0.0841,-3.30323 0.47348,-0.47347 0.47347,-0.47347 3.185,-0.23879 3.185,-0.23879 6.11513,0.24136 6.11512,0.24135 0.46456,0.2882 0.46455,0.28821 v 3.50166 3.50165 l -0.59553,0.5956 -0.59554,0.59559 -8.07716,0.0204 c -4.44244,0.0112 -8.55383,-0.035 -9.13641,-0.10267 z"
           id="path2483" />
        <path
           style="fill:#0051ad;stroke-width:0.333565"
           d="m 181.27322,427.67655 c -12.3274,-15.59278 -18.23159,-23.44745 -32.53418,-43.28201 -3.98351,-5.52428 -13.59917,-19.61275 -20.60367,-30.18767 -18.0166,-27.20025 -36.18829,-58.12165 -45.380378,-77.22039 -8.567436,-17.80088 -13.433114,-30.81471 -16.381869,-43.81525 -1.275581,-5.62381 -1.94049,-10.1458 -2.410454,-16.39331 l -0.376381,-5.00348 0.19687,-6.83809 0.196873,-6.83809 0.816705,-5.51096 c 0.909653,-6.13814 1.718012,-9.80086 3.266429,-14.80035 8.368255,-27.0192 25.565772,-49.01974 49.810415,-63.72173 8.90935,-5.40264 18.777,-9.63046 28.76726,-12.3254 4.73868,-1.27829 13.17202,-2.942019 18.26954,-3.604213 l 3.33566,-0.433318 9.17304,0.02729 9.17305,0.02729 4.16957,0.563573 c 13.25155,1.791128 25.07921,5.207878 35.78331,10.337018 12.42402,5.95328 22.29841,12.9835 32.33953,23.02461 l 4.50805,4.50806 3.16705,3.93528 c 11.03704,13.71429 18.8992,30.41661 22.57863,47.96592 1.29204,6.16246 1.64598,8.8874 2.03543,15.67086 l 0.32518,5.66389 -0.34116,5.97615 c -0.18763,3.28688 -0.55496,7.49283 -0.81628,9.34655 -0.64348,4.56454 -2.31626,12.74483 -3.72458,18.21405 -2.38757,9.27217 -7.649,23.8316 -13.56105,37.52611 -7.47485,17.31456 -19.43602,41.06913 -30.31689,60.20856 -4.93937,8.68831 -6.38149,11.15172 -10.34954,17.67896 -13.76307,22.63949 -24.06368,38.41446 -34.60349,52.99387 -2.30389,3.18692 -4.95842,6.86448 -5.89898,8.17235 -0.94054,1.30791 -3.04787,4.10419 -4.68294,6.21399 l -2.97285,3.836 -0.6541,0.0853 -0.65411,0.0853 -1.64969,-2.08666 z m 1.81647,-93.77186 c 3.22161,-2.28675 12.61708,-9.55762 17.3454,-13.42308 10.78328,-8.81544 22.43247,-19.67742 31.80351,-29.65431 10.09916,-10.75211 21.80894,-26.27198 27.55689,-36.52327 0.97724,-1.74288 2.51494,-4.44476 3.41711,-6.00418 2.67719,-4.62758 6.09142,-11.84109 8.084,-17.07968 3.16077,-8.30985 5.10076,-16.22757 6.00742,-24.51819 l 0.51824,-4.7389 -0.003,-4.9345 c -0.0105,-18.89014 -6.16381,-36.83577 -18.0986,-52.7833 l -3.38339,-4.52096 -5.01863,-5.02109 -5.01864,-5.0211 -3.16887,-2.45388 c -4.28014,-3.31443 -12.33549,-8.6038 -15.91902,-10.45289 -12.16998,-6.27967 -24.56395,-9.97247 -38.28535,-11.40716 l -4.66992,-0.48828 -5.33704,0.002 c -6.04659,0.002 -10.08704,0.33563 -16.34471,1.34849 -10.95334,1.77289 -19.05306,4.36138 -28.27566,9.03625 l -4.59253,2.32793 -4.22722,2.82297 c -2.32497,1.55264 -5.28683,3.67028 -6.58191,4.70587 -11.43944,9.14738 -20.959795,21.08538 -27.075149,33.95074 l -1.793521,3.77317 -1.980595,5.95067 -1.980594,5.95066 -0.840125,4.33635 c -0.462071,2.38499 -1.028108,5.76234 -1.257858,7.50522 l -0.417734,3.16887 0.0039,7.33844 0.0039,7.33844 0.417511,3.66922 c 0.229633,2.01807 0.861933,5.87792 1.405117,8.57744 l 0.987604,4.90822 1.61067,5.26552 c 4.349993,14.22079 11.947138,28.78517 22.321194,42.79164 15.95291,21.53875 37.51803,42.68634 64.06552,62.82513 l 5.12118,3.88491 0.38265,-0.22043 c 0.21046,-0.12123 1.65853,-1.12607 3.21795,-2.23297 z m -24.50144,-60.22206 -0.65151,-0.25487 1.11017,-0.22203 c 1.40078,-0.28016 10.60282,-0.28365 11.64567,-0.004 l 0.77872,0.20851 -0.44515,0.28218 -0.44516,0.28218 -5.67061,-0.0183 -5.67061,-0.0183 -0.65152,-0.25487 z m -1.62784,-3.25627 -0.22238,-0.22238 v -25.10891 -25.1089 l 0.33356,-0.20616 0.33357,-0.20615 v 25.53744 c 0,14.04559 -0.05,25.53744 -0.11119,25.53744 -0.0611,0 -0.21126,-0.10007 -0.33356,-0.22238 z m 15.49389,-14.37111 c -0.0213,-0.59625 -0.0762,-1.18674 -0.12209,-1.31219 l -0.0834,-0.22811 3.50244,0.0218 c 1.92634,0.012 4.70327,0.0632 6.17096,0.11381 l 2.66852,0.092 -2.33496,0.23965 c -1.28423,0.13181 -3.76095,0.26059 -5.50383,0.28619 -1.74288,0.0256 -3.33913,0.15682 -3.54724,0.29161 -0.2081,0.13479 -0.45337,0.54527 -0.54504,0.9122 l -0.16668,0.66713 z m 15.30531,-1.89433 c 0,-0.0787 0.85525,-0.39174 1.90056,-0.69563 1.04531,-0.30387 2.77151,-0.99216 3.836,-1.52951 2.26932,-1.14555 2.56873,-1.03309 0.49114,0.18446 -2.12802,1.2471 -6.2277,2.59047 -6.2277,2.04068 z m -2.30441,-22.33574 c -0.21894,-0.26381 -1.10343,-0.81154 -1.96553,-1.21717 l -1.56745,-0.73751 -4.184,-0.17029 -4.184,-0.17029 -0.53353,0.53353 -0.53353,0.53353 -0.19164,-0.73281 -0.19163,-0.73282 0.28794,-0.28794 0.28794,-0.28795 4.78801,0.11541 4.788,0.11541 1.31535,0.69002 c 1.30474,0.68445 2.80875,2.30194 2.46246,2.64823 -0.0992,0.0992 -0.35944,-0.0355 -0.57839,-0.29935 z m -51.93821,-13.75207 -1.3725,-0.48677 -1.38343,-1.18416 c -1.21633,-1.04114 -2.32579,-2.45956 -1.9238,-2.45956 0.0782,0 0.86775,0.59956 1.75454,1.33235 l 1.61233,1.33236 1.63748,0.54388 1.63747,0.54388 2.20695,-0.15907 2.20695,-0.15908 1.83461,-0.92647 1.83461,-0.92648 -0.62872,0.70293 c -0.3458,0.38662 -1.38848,1.08155 -2.31707,1.54428 l -1.68833,0.84133 -2.01929,-0.0263 -2.01929,-0.0263 -1.37251,-0.48676 z m 72.41716,-0.26292 -1.6726,-0.8468 -1.49627,-1.59059 -1.49627,-1.59058 1.00069,0.87826 c 0.55039,0.48305 1.82627,1.29187 2.83531,1.79737 l 1.83461,0.91909 2.25266,0.16235 2.25266,0.16235 1.47849,-0.56464 c 0.81316,-0.31055 2.03658,-1.00816 2.71871,-1.55025 1.35099,-1.07364 1.72845,-1.08022 1.16117,-0.0203 l -0.36411,0.68034 -2.24805,1.0841 -2.24805,1.0841 -2.16818,0.12097 -2.16817,0.12097 -1.6726,-0.8468 z m -6.14001,-7.08856 c -0.19581,-0.70518 -0.35456,-2.10772 -0.35277,-3.11675 l 0.003,-1.83461 0.29382,-0.464 0.29382,-0.46399 -0.17098,2.13182 -0.171,2.13182 0.36337,1.31551 c 0.19985,0.72353 0.30333,1.37554 0.22994,1.44893 -0.0734,0.0734 -0.29363,-0.44354 -0.48944,-1.14873 z m -72.849,0.0914 c -0.1254,-0.32678 -0.21292,-1.06972 -0.19449,-1.65096 l 0.0335,-1.05681 0.30752,1.31188 c 0.16914,0.72153 0.25666,1.46446 0.19449,1.65096 l -0.11303,0.33909 z m 44.46977,-3.2256 c -3.76095,-0.10135 -6.87562,-0.21393 -6.92149,-0.25017 -0.0459,-0.0362 -0.0834,-0.21601 -0.0834,-0.39947 v -0.33357 h 16.41619 16.41618 l -0.48844,0.47699 -0.48843,0.47699 -9.00627,0.10675 c -4.95344,0.0587 -12.0834,0.0238 -15.84435,-0.0775 z m -58.00746,-0.50104 c -0.62401,-0.27083 -1.07432,-0.52763 -1.0007,-0.57068 0.0736,-0.043 2.72317,-0.0309 5.88787,0.0271 l 5.754,0.10536 v 0.2727 c 0,0.4982 -1.4604,0.67504 -5.50383,0.66645 l -4.00278,-0.008 -1.13456,-0.49241 z m 36.32571,0.0182 -0.41526,-0.50035 h 5.3779 5.37788 v 0.29466 c 0,0.52323 -1.41393,0.69683 -5.71316,0.70148 l -4.21211,0.005 z m 72.60606,0.27797 c -0.12231,-0.12231 -0.22238,-0.34746 -0.22238,-0.50035 v -0.27797 l 2.25157,-0.0123 c 2.56609,-0.014 4.90843,-0.44816 10.55055,-1.95573 2.17944,-0.58234 4.02279,-0.99864 4.09632,-0.92511 0.29107,0.29106 -3.43612,1.6351 -6.2181,2.24228 -1.61908,0.35337 -3.81541,0.86952 -4.88074,1.147 l -1.93698,0.50454 h -1.70893 c -0.93991,0 -1.809,-0.10007 -1.93131,-0.22238 z m -74.36414,-3.52638 -0.5906,-1.42151 -1.80761,-1.89712 -1.80761,-1.89713 -2.70588,-0.85479 -2.70588,-0.85479 -2.23435,0.007 -2.23435,0.007 -1.46644,0.66534 c -0.80654,0.36594 -2.44258,1.3619 -3.63564,2.21325 l -2.1692,1.54791 0.63355,-1.09966 0.63355,-1.09965 1.50105,-1.10088 1.50104,-1.10087 1.83461,-0.60379 1.83461,-0.60378 2.83531,0.0238 2.8353,0.0238 1.25791,0.54586 c 0.69185,0.30023 2.14718,1.23014 3.23407,2.06648 l 1.97615,1.52062 1.04935,2.13153 1.04935,2.13154 -0.11384,0.53535 -0.11385,0.53535 z m 50.22348,-0.0642 0.20254,-1.24813 0.99896,-1.55674 0.99896,-1.55674 1.63116,-1.24395 c 0.89715,-0.68417 2.18903,-1.47703 2.87086,-1.76191 l 1.23968,-0.51798 2.60651,-0.201 2.60651,-0.201 2.4491,0.7439 2.4491,0.74389 2.06096,2.10193 2.06095,2.10193 0.4044,1.22532 c 0.22241,0.67393 0.32772,1.30199 0.23401,1.39569 -0.0937,0.0937 -0.53844,-0.37129 -0.98831,-1.03332 -0.44986,-0.66204 -1.40136,-1.64522 -2.11444,-2.18484 l -1.29649,-0.98113 -0.66714,-0.0166 c -0.832,-0.0207 -3.36868,-1.15481 -4.00397,-1.79009 -0.26087,-0.26088 -1.22474,-0.65434 -2.14192,-0.87437 l -1.66762,-0.40005 -1.88755,0.86415 c -1.03816,0.47528 -2.1321,0.86514 -2.43099,0.86635 -0.85026,0.003 -2.22813,1.04874 -3.49845,2.65403 l -1.16353,1.47035 -0.20521,1.09388 c -0.11287,0.60163 -0.37293,1.19753 -0.57792,1.32422 l -0.37271,0.23035 0.20255,-1.24813 z m -35.00624,-3.52551 v -2.83531 l 0.12769,1.41765 c 0.0702,0.77971 0.0702,2.0556 0,2.83531 l -0.12769,1.41765 z m -2.00579,-0.33357 v -2.50174 l 0.13084,1.25087 c 0.072,0.68798 0.072,1.81376 0,2.50174 l -0.13084,1.25087 z m -49.68178,-4.16957 0.001,-4.66991 0.11541,2.43294 c 0.0635,1.33812 0.063,3.43958 -0.001,4.66992 l -0.11635,2.23697 0.001,-4.66992 z m 51.59286,-9.50661 c -0.0453,-2.84364 -0.11218,-8.89451 -0.14872,-13.44638 l -0.0665,-8.27611 -0.42185,-0.26072 -0.42184,-0.26071 -15.8804,-0.23618 -15.8804,-0.23617 -2.56039,-0.44698 c -2.44335,-0.42656 -4.41343,-1.16975 -4.81252,-1.81548 l -0.18518,-0.29964 2.5117,0.79762 2.5117,0.79761 h 17.97625 17.97626 l -0.0194,10.42392 c -0.0107,5.73315 -0.12677,12.22517 -0.25795,14.4267 l -0.2385,4.00278 -0.0823,-5.17026 z m -1.9787,-8.25574 -0.0378,-11.42462 h 0.33023 0.33022 l -0.0333,10.5907 -0.0332,10.5907 -0.25913,0.83392 -0.25912,0.83391 -0.0378,-11.42461 z m -25.70273,2.72412 0.0263,-0.63934 0.17519,0.43781 c 0.0964,0.24079 0.0845,0.52849 -0.0263,0.63933 -0.11085,0.11084 -0.18968,-0.0862 -0.1752,-0.4378 z m 4.31001,-6.66245 c 0,-0.11643 0.25752,-0.64765 0.57227,-1.18047 l 0.57227,-0.96877 h 5.43191 5.43191 l -0.0212,1.25087 -0.0212,1.25087 -0.30167,-0.75052 -0.30167,-0.75053 h -4.95133 -4.95134 l -0.73003,0.68013 c -0.4015,0.37407 -0.73002,0.58486 -0.73002,0.46842 z m 70.1521,-1.98246 0.003,-2.00139 0.13498,1.09006 c 0.0742,0.59953 0.0727,1.50016 -0.003,2.00139 l -0.13839,0.91133 0.003,-2.00139 z m 22.79993,-7.40477 -0.25497,-0.73346 -0.65604,-0.20821 c -0.36082,-0.11452 -5.22344,-0.22235 -10.80583,-0.23962 l -10.14979,-0.0314 -0.51833,0.43017 -0.51834,0.43018 v -0.52946 -0.52945 l 0.64521,-0.34531 0.6452,-0.3453 h 10.47754 10.47754 l 0.57885,0.63963 0.57885,0.63962 -0.12246,0.77803 -0.12245,0.77803 -0.25498,-0.73346 z m -35.80964,-0.6008 -0.38934,-0.66713 h -7.58428 -7.58428 l -0.13968,0.41904 -0.13968,0.41903 -0.30507,-0.18855 c -0.44621,-0.27577 -0.37443,-0.6993 0.2191,-1.29282 l 0.52417,-0.52418 h 7.41764 7.41764 l 0.59578,0.43565 0.59578,0.43564 -0.11922,0.81523 -0.11922,0.81522 z m -40.79768,-13.4489 v -0.97954 l -0.42413,-0.35199 -0.42413,-0.352 -8.66553,-0.0587 -8.66552,-0.0587 -0.58374,0.23874 c -0.72427,0.29621 -0.74753,0.0452 -0.0596,-0.64273 l 0.52418,-0.52417 h 8.83758 8.83759 l 0.6452,0.3453 0.6452,0.3453 v 1.30284 1.30284 l -0.33357,0.20616 -0.33356,0.20615 z"
           id="path2481" />
      </g>
    </g>
  </g>
</svg>
