<svg width="64" height="64" viewBox="0 0 64 64" fill="none" xmlns="http://www.w3.org/2000/svg">
  <defs>
    <linearGradient id="pinFill" x1="18" y1="10" x2="46" y2="52" gradientUnits="userSpaceOnUse">
      <stop stop-color="#FFA43A"/>
      <stop offset="1" stop-color="#F06A00"/>
    </linearGradient>
    <filter id="shadow" x="5" y="4" width="54" height="57" filterUnits="userSpaceOnUse" color-interpolation-filters="sRGB">
      <feFlood flood-opacity="0" result="BackgroundImageFix"/>
      <feColorMatrix in="SourceAlpha" type="matrix" values="0 0 0 0 0 0 0 0 0 0 0 0 0 0 0 0 0 0 127 0" result="hardAlpha"/>
      <feOffset dy="4"/>
      <feGaussianBlur stdDeviation="4"/>
      <feColorMatrix type="matrix" values="0 0 0 0 0.207843 0 0 0 0 0.0941176 0 0 0 0 0.00784314 0 0 0 0.28 0"/>
      <feBlend mode="normal" in2="BackgroundImageFix" result="effect1_dropShadow_1_1"/>
      <feBlend mode="normal" in="SourceGraphic" in2="effect1_dropShadow_1_1" result="shape"/>
    </filter>
  </defs>
  <g filter="url(#shadow)">
    <path d="M32 8C21.5066 8 13 16.5066 13 27C13 40.3333 27.3333 50.6667 30.52 52.828C31.4205 53.4386 32.5795 53.4386 33.48 52.828C36.6667 50.6667 51 40.3333 51 27C51 16.5066 42.4934 8 32 8Z" fill="url(#pinFill)"/>
    <path d="M32 8C21.5066 8 13 16.5066 13 27C13 40.3333 27.3333 50.6667 30.52 52.828C31.4205 53.4386 32.5795 53.4386 33.48 52.828C36.6667 50.6667 51 40.3333 51 27C51 16.5066 42.4934 8 32 8Z" stroke="#FFF3E4" stroke-width="2"/>
  </g>
  <circle cx="32" cy="27" r="12" fill="#FFF7ED" fill-opacity="0.96"/>
  <path d="M32 17L34.7812 23.2188L41 26L34.7812 28.7812L32 35L29.2188 28.7812L23 26L29.2188 23.2188L32 17Z" fill="#F97316"/>
  <circle cx="32" cy="26" r="2.25" fill="#FFF7ED"/>
</svg>
